<svg xmlns="http://www.w3.org/2000/svg" xmlns:xlink="http://www.w3.org/1999/xlink" width="1080" zoomAndPan="magnify" viewBox="0 0 810 809.999993" height="1080" preserveAspectRatio="xMidYMid meet" version="1.0"><defs><clipPath id="35f342a065"><path d="M 532 0 L 809.8125 0 L 809.8125 279 L 532 279 Z M 532 0 " clip-rule="nonzero"/></clipPath><clipPath id="6f2b54101c"><path d="M 147 385 L 425 385 L 425 663 L 147 663 Z M 147 385 " clip-rule="nonzero"/></clipPath><clipPath id="895d9923f9"><path d="M 532 385 L 809.8125 385 L 809.8125 663 L 532 663 Z M 532 385 " clip-rule="nonzero"/></clipPath><clipPath id="a219e252f7"><path d="M 404 600 L 468 600 L 468 663 L 404 663 Z M 404 600 " clip-rule="nonzero"/></clipPath><clipPath id="0a41cb6971"><path d="M 446 600 L 511 600 L 511 663 L 446 663 Z M 446 600 " clip-rule="nonzero"/></clipPath><clipPath id="1558deb98b"><path d="M 489 600 L 554 600 L 554 663 L 489 663 Z M 489 600 " clip-rule="nonzero"/></clipPath><clipPath id="ced5efd94f"><path d="M 746 257 L 809.8125 257 L 809.8125 321 L 746 321 Z M 746 257 " clip-rule="nonzero"/></clipPath><clipPath id="cde5b96722"><path d="M 746 300 L 809.8125 300 L 809.8125 364 L 746 364 Z M 746 300 " clip-rule="nonzero"/></clipPath><clipPath id="5b3a7dfb48"><path d="M 746 343 L 809.8125 343 L 809.8125 407 L 746 407 Z M 746 343 " clip-rule="nonzero"/></clipPath><clipPath id="40947adfb7"><path d="M 59 747 L 117 747 L 117 807 L 59 807 Z M 59 747 " clip-rule="nonzero"/></clipPath><clipPath id="02ac3e5314"><path d="M 0 719.792969 L 128.59375 641.121094 L 215.484375 783.148438 L 86.890625 861.820312 Z M 0 719.792969 " clip-rule="nonzero"/></clipPath><clipPath id="93ec87d5b2"><path d="M 0 719.792969 L 128.59375 641.121094 L 215.484375 783.148438 L 86.890625 861.820312 Z M 0 719.792969 " clip-rule="nonzero"/></clipPath><clipPath id="d00e992be6"><path d="M 39 730 L 102 730 L 102 793 L 39 793 Z M 39 730 " clip-rule="nonzero"/></clipPath><clipPath id="f88711a072"><path d="M 0 719.792969 L 128.59375 641.121094 L 215.484375 783.148438 L 86.890625 861.820312 Z M 0 719.792969 " clip-rule="nonzero"/></clipPath><clipPath id="83fe92f199"><path d="M 0 719.792969 L 128.59375 641.121094 L 215.484375 783.148438 L 86.890625 861.820312 Z M 0 719.792969 " clip-rule="nonzero"/></clipPath><clipPath id="50154da12e"><path d="M 35 727 L 84 727 L 84 775 L 35 775 Z M 35 727 " clip-rule="nonzero"/></clipPath><clipPath id="43af8d6424"><path d="M 0 719.792969 L 128.59375 641.121094 L 215.484375 783.148438 L 86.890625 861.820312 Z M 0 719.792969 " clip-rule="nonzero"/></clipPath><clipPath id="7bfef7a4a6"><path d="M 0 719.792969 L 128.59375 641.121094 L 215.484375 783.148438 L 86.890625 861.820312 Z M 0 719.792969 " clip-rule="nonzero"/></clipPath><clipPath id="af7713c7d9"><path d="M 13 706 L 47 706 L 47 740 L 13 740 Z M 13 706 " clip-rule="nonzero"/></clipPath><clipPath id="0aaa23f336"><path d="M 0 719.792969 L 128.59375 641.121094 L 215.484375 783.148438 L 86.890625 861.820312 Z M 0 719.792969 " clip-rule="nonzero"/></clipPath><clipPath id="a4262fbe2d"><path d="M 0 719.792969 L 128.59375 641.121094 L 215.484375 783.148438 L 86.890625 861.820312 Z M 0 719.792969 " clip-rule="nonzero"/></clipPath><clipPath id="c919955ce3"><path d="M 124 732 L 192 732 L 192 785 L 124 785 Z M 124 732 " clip-rule="nonzero"/></clipPath><clipPath id="d176f451a3"><path d="M 0 719.792969 L 128.59375 641.121094 L 215.484375 783.148438 L 86.890625 861.820312 Z M 0 719.792969 " clip-rule="nonzero"/></clipPath><clipPath id="2b1b8524ab"><path d="M 0 719.792969 L 128.59375 641.121094 L 215.484375 783.148438 L 86.890625 861.820312 Z M 0 719.792969 " clip-rule="nonzero"/></clipPath><clipPath id="4e2dd5cecd"><path d="M 127 766 L 196 766 L 196 805 L 127 805 Z M 127 766 " clip-rule="nonzero"/></clipPath><clipPath id="9def8016bf"><path d="M 0 719.792969 L 128.59375 641.121094 L 215.484375 783.148438 L 86.890625 861.820312 Z M 0 719.792969 " clip-rule="nonzero"/></clipPath><clipPath id="7548883646"><path d="M 0 719.792969 L 128.59375 641.121094 L 215.484375 783.148438 L 86.890625 861.820312 Z M 0 719.792969 " clip-rule="nonzero"/></clipPath><clipPath id="faf8c77d7e"><path d="M 136 718 L 177 718 L 177 766 L 136 766 Z M 136 718 " clip-rule="nonzero"/></clipPath><clipPath id="534155a186"><path d="M 0 719.792969 L 128.59375 641.121094 L 215.484375 783.148438 L 86.890625 861.820312 Z M 0 719.792969 " clip-rule="nonzero"/></clipPath><clipPath id="e978a51a5d"><path d="M 0 719.792969 L 128.59375 641.121094 L 215.484375 783.148438 L 86.890625 861.820312 Z M 0 719.792969 " clip-rule="nonzero"/></clipPath><clipPath id="c7f938f40a"><path d="M 130 686 L 163 686 L 163 719 L 130 719 Z M 130 686 " clip-rule="nonzero"/></clipPath><clipPath id="8430f39b37"><path d="M 0 719.792969 L 128.59375 641.121094 L 215.484375 783.148438 L 86.890625 861.820312 Z M 0 719.792969 " clip-rule="nonzero"/></clipPath><clipPath id="c9fd7d195d"><path d="M 0 719.792969 L 128.59375 641.121094 L 215.484375 783.148438 L 86.890625 861.820312 Z M 0 719.792969 " clip-rule="nonzero"/></clipPath></defs><rect x="-81" width="972" fill="#ffffff" y="-80.999999" height="971.999992" fill-opacity="1"/><rect x="-81" width="972" fill="#f4aebf" y="-80.999999" height="971.999992" fill-opacity="1"/><path fill="#f65555" d="M 414.511719 267.699219 L 157.429688 267.699219 L 157.429688 10.617188 L 414.511719 10.617188 L 414.511719 267.699219 " fill-opacity="1" fill-rule="nonzero"/><path fill="#000000" d="M 167.8125 257.316406 L 404.128906 257.316406 L 404.128906 21 L 167.8125 21 Z M 424.855469 278.042969 L 147.085938 278.042969 L 147.085938 0.273438 L 424.855469 0.273438 L 424.855469 278.042969 " fill-opacity="1" fill-rule="nonzero"/><path fill="#ffffff" d="M 200.285156 224.847656 L 200.285156 53.472656 L 371.660156 53.472656 L 371.660156 224.847656 L 200.285156 224.847656 " fill-opacity="1" fill-rule="nonzero"/><path fill="#000000" d="M 210.664062 214.464844 L 361.3125 214.464844 L 361.3125 63.851562 L 210.664062 63.851562 Z M 382.039062 235.226562 L 189.9375 235.226562 L 189.9375 43.125 L 382.039062 43.125 L 382.039062 235.226562 " fill-opacity="1" fill-rule="nonzero"/><path fill="#2ed95e" d="M 800.113281 267.699219 L 543.035156 267.699219 L 543.035156 10.617188 L 800.113281 10.617188 L 800.113281 267.699219 " fill-opacity="1" fill-rule="nonzero"/><g clip-path="url(#35f342a065)"><path fill="#000000" d="M 553.414062 257.316406 L 789.734375 257.316406 L 789.734375 21 L 553.414062 21 Z M 810.460938 278.042969 L 532.652344 278.042969 L 532.652344 0.273438 L 810.460938 0.273438 L 810.460938 278.042969 " fill-opacity="1" fill-rule="nonzero"/></g><path fill="#ffffff" d="M 585.886719 224.847656 L 585.886719 53.472656 L 757.261719 53.472656 L 757.261719 224.847656 L 585.886719 224.847656 " fill-opacity="1" fill-rule="nonzero"/><path fill="#000000" d="M 596.230469 214.464844 L 746.878906 214.464844 L 746.878906 63.851562 L 596.230469 63.851562 Z M 767.605469 235.226562 L 575.503906 235.226562 L 575.503906 43.125 L 767.605469 43.125 L 767.605469 235.226562 " fill-opacity="1" fill-rule="nonzero"/><path fill="#ffffff" d="M 457.363281 53.472656 L 414.511719 53.472656 L 414.511719 10.617188 L 457.363281 10.617188 L 457.363281 53.472656 " fill-opacity="1" fill-rule="nonzero"/><path fill="#000000" d="M 424.855469 43.125 L 446.984375 43.125 L 446.984375 21 L 424.855469 21 Z M 467.707031 63.851562 L 404.128906 63.851562 L 404.128906 0.273438 L 467.707031 0.273438 L 467.707031 63.851562 " fill-opacity="1" fill-rule="nonzero"/><path fill="#ffffff" d="M 500.179688 53.472656 L 457.363281 53.472656 L 457.363281 10.617188 L 500.179688 10.617188 L 500.179688 53.472656 " fill-opacity="1" fill-rule="nonzero"/><path fill="#000000" d="M 467.707031 43.125 L 489.835938 43.125 L 489.835938 21 L 467.707031 21 Z M 510.5625 63.851562 L 446.984375 63.851562 L 446.984375 0.273438 L 510.5625 0.273438 L 510.5625 63.851562 " fill-opacity="1" fill-rule="nonzero"/><path fill="#ffffff" d="M 543.035156 53.472656 L 500.179688 53.472656 L 500.179688 10.617188 L 543.035156 10.617188 L 543.035156 53.472656 " fill-opacity="1" fill-rule="nonzero"/><path fill="#000000" d="M 510.5625 43.125 L 532.652344 43.125 L 532.652344 21 L 510.5625 21 Z M 553.414062 63.851562 L 489.835938 63.851562 L 489.835938 0.273438 L 553.414062 0.273438 L 553.414062 63.851562 " fill-opacity="1" fill-rule="nonzero"/><path fill="#ffffff" d="M 457.363281 96.324219 L 414.511719 96.324219 L 414.511719 53.472656 L 457.363281 53.472656 L 457.363281 96.324219 " fill-opacity="1" fill-rule="nonzero"/><path fill="#000000" d="M 424.855469 85.941406 L 446.984375 85.941406 L 446.984375 63.851562 L 424.855469 63.851562 Z M 467.707031 106.703125 L 404.128906 106.703125 L 404.128906 43.125 L 467.707031 43.125 L 467.707031 106.703125 " fill-opacity="1" fill-rule="nonzero"/><path fill="#2ed95e" d="M 500.179688 96.324219 L 457.363281 96.324219 L 457.363281 53.472656 L 500.179688 53.472656 L 500.179688 96.324219 " fill-opacity="1" fill-rule="nonzero"/><path fill="#000000" d="M 467.707031 85.941406 L 489.835938 85.941406 L 489.835938 63.851562 L 467.707031 63.851562 Z M 510.5625 106.703125 L 446.984375 106.703125 L 446.984375 43.125 L 510.5625 43.125 L 510.5625 106.703125 " fill-opacity="1" fill-rule="nonzero"/><path fill="#2ed95e" d="M 543.035156 96.324219 L 500.179688 96.324219 L 500.179688 53.472656 L 543.035156 53.472656 L 543.035156 96.324219 " fill-opacity="1" fill-rule="nonzero"/><path fill="#000000" d="M 510.5625 85.941406 L 532.652344 85.941406 L 532.652344 63.851562 L 510.5625 63.851562 Z M 553.414062 106.703125 L 489.835938 106.703125 L 489.835938 43.125 L 553.414062 43.125 L 553.414062 106.703125 " fill-opacity="1" fill-rule="nonzero"/><path fill="#ffffff" d="M 457.363281 139.175781 L 414.511719 139.175781 L 414.511719 96.324219 L 457.363281 96.324219 L 457.363281 139.175781 " fill-opacity="1" fill-rule="nonzero"/><path fill="#000000" d="M 424.855469 128.796875 L 446.984375 128.796875 L 446.984375 106.703125 L 424.855469 106.703125 Z M 467.707031 149.519531 L 404.128906 149.519531 L 404.128906 85.941406 L 467.707031 85.941406 L 467.707031 149.519531 " fill-opacity="1" fill-rule="nonzero"/><path fill="#2ed95e" d="M 500.179688 139.175781 L 457.363281 139.175781 L 457.363281 96.324219 L 500.179688 96.324219 L 500.179688 139.175781 " fill-opacity="1" fill-rule="nonzero"/><path fill="#000000" d="M 467.707031 128.796875 L 489.835938 128.796875 L 489.835938 106.703125 L 467.707031 106.703125 Z M 510.5625 149.519531 L 446.984375 149.519531 L 446.984375 85.941406 L 510.5625 85.941406 L 510.5625 149.519531 " fill-opacity="1" fill-rule="nonzero"/><path fill="#ffffff" d="M 543.035156 139.175781 L 500.179688 139.175781 L 500.179688 96.324219 L 543.035156 96.324219 L 543.035156 139.175781 " fill-opacity="1" fill-rule="nonzero"/><path fill="#000000" d="M 510.5625 128.796875 L 532.652344 128.796875 L 532.652344 106.703125 L 510.5625 106.703125 Z M 553.414062 149.519531 L 489.835938 149.519531 L 489.835938 85.941406 L 553.414062 85.941406 L 553.414062 149.519531 " fill-opacity="1" fill-rule="nonzero"/><path fill="#ffffff" d="M 457.363281 224.847656 L 414.511719 224.847656 L 414.511719 181.992188 L 457.363281 181.992188 L 457.363281 224.847656 " fill-opacity="1" fill-rule="nonzero"/><path fill="#000000" d="M 424.855469 214.464844 L 446.984375 214.464844 L 446.984375 192.375 L 424.855469 192.375 Z M 467.707031 235.226562 L 404.128906 235.226562 L 404.128906 171.648438 L 467.707031 171.648438 L 467.707031 235.226562 " fill-opacity="1" fill-rule="nonzero"/><path fill="#2ed95e" d="M 500.179688 224.847656 L 457.363281 224.847656 L 457.363281 181.992188 L 500.179688 181.992188 L 500.179688 224.847656 " fill-opacity="1" fill-rule="nonzero"/><path fill="#000000" d="M 467.707031 214.464844 L 489.835938 214.464844 L 489.835938 192.375 L 467.707031 192.375 Z M 510.5625 235.226562 L 446.984375 235.226562 L 446.984375 171.648438 L 510.5625 171.648438 L 510.5625 235.226562 " fill-opacity="1" fill-rule="nonzero"/><path fill="#ffffff" d="M 543.035156 224.847656 L 500.179688 224.847656 L 500.179688 181.992188 L 543.035156 181.992188 L 543.035156 224.847656 " fill-opacity="1" fill-rule="nonzero"/><path fill="#000000" d="M 510.5625 214.464844 L 532.652344 214.464844 L 532.652344 192.375 L 510.5625 192.375 Z M 553.414062 235.226562 L 489.835938 235.226562 L 489.835938 171.648438 L 553.414062 171.648438 L 553.414062 235.226562 " fill-opacity="1" fill-rule="nonzero"/><path fill="#ffffff" d="M 457.363281 267.699219 L 414.511719 267.699219 L 414.511719 224.847656 L 457.363281 224.847656 L 457.363281 267.699219 " fill-opacity="1" fill-rule="nonzero"/><path fill="#000000" d="M 424.855469 257.316406 L 446.984375 257.316406 L 446.984375 235.226562 L 424.855469 235.226562 Z M 467.707031 278.042969 L 404.128906 278.042969 L 404.128906 214.464844 L 467.707031 214.464844 L 467.707031 278.042969 " fill-opacity="1" fill-rule="nonzero"/><path fill="#2ed95e" d="M 500.179688 267.699219 L 457.363281 267.699219 L 457.363281 224.847656 L 500.179688 224.847656 L 500.179688 267.699219 " fill-opacity="1" fill-rule="nonzero"/><path fill="#000000" d="M 467.707031 257.316406 L 489.835938 257.316406 L 489.835938 235.226562 L 467.707031 235.226562 Z M 510.5625 278.042969 L 446.984375 278.042969 L 446.984375 214.464844 L 510.5625 214.464844 L 510.5625 278.042969 " fill-opacity="1" fill-rule="nonzero"/><path fill="#ffffff" d="M 543.035156 267.699219 L 500.179688 267.699219 L 500.179688 224.847656 L 543.035156 224.847656 L 543.035156 267.699219 " fill-opacity="1" fill-rule="nonzero"/><path fill="#000000" d="M 510.5625 257.316406 L 532.652344 257.316406 L 532.652344 235.226562 L 510.5625 235.226562 Z M 553.414062 278.042969 L 489.835938 278.042969 L 489.835938 214.464844 L 553.414062 214.464844 L 553.414062 278.042969 " fill-opacity="1" fill-rule="nonzero"/><path fill="#478ff1" d="M 414.511719 653.265625 L 157.429688 653.265625 L 157.429688 396.222656 L 414.511719 396.222656 L 414.511719 653.265625 " fill-opacity="1" fill-rule="nonzero"/><g clip-path="url(#6f2b54101c)"><path fill="#000000" d="M 167.8125 642.921875 L 404.128906 642.921875 L 404.128906 406.601562 L 167.8125 406.601562 Z M 424.855469 663.648438 L 147.085938 663.648438 L 147.085938 385.875 L 424.855469 385.875 L 424.855469 663.648438 " fill-opacity="1" fill-rule="nonzero"/></g><path fill="#ffffff" d="M 200.285156 610.449219 L 200.285156 439.074219 L 371.660156 439.074219 L 371.660156 610.449219 L 200.285156 610.449219 " fill-opacity="1" fill-rule="nonzero"/><path fill="#000000" d="M 210.664062 600.066406 L 361.3125 600.066406 L 361.3125 449.453125 L 210.664062 449.453125 Z M 382.039062 620.792969 L 189.9375 620.792969 L 189.9375 428.691406 L 382.039062 428.691406 L 382.039062 620.792969 " fill-opacity="1" fill-rule="nonzero"/><path fill="#fab91a" d="M 800.113281 653.265625 L 543.035156 653.265625 L 543.035156 396.222656 L 800.113281 396.222656 L 800.113281 653.265625 " fill-opacity="1" fill-rule="nonzero"/><g clip-path="url(#895d9923f9)"><path fill="#000000" d="M 553.414062 642.921875 L 789.734375 642.921875 L 789.734375 406.601562 L 553.414062 406.601562 Z M 810.460938 663.648438 L 532.652344 663.648438 L 532.652344 385.875 L 810.460938 385.875 L 810.460938 663.648438 " fill-opacity="1" fill-rule="nonzero"/></g><path fill="#ffffff" d="M 585.886719 610.449219 L 585.886719 439.074219 L 757.261719 439.074219 L 757.261719 610.449219 L 585.886719 610.449219 " fill-opacity="1" fill-rule="nonzero"/><path fill="#000000" d="M 596.230469 600.066406 L 746.878906 600.066406 L 746.878906 449.453125 L 596.230469 449.453125 Z M 767.605469 620.792969 L 575.503906 620.792969 L 575.503906 428.691406 L 767.605469 428.691406 L 767.605469 620.792969 " fill-opacity="1" fill-rule="nonzero"/><path fill="#ffffff" d="M 457.363281 439.074219 L 414.511719 439.074219 L 414.511719 396.222656 L 457.363281 396.222656 L 457.363281 439.074219 " fill-opacity="1" fill-rule="nonzero"/><path fill="#000000" d="M 424.855469 428.691406 L 446.984375 428.691406 L 446.984375 406.601562 L 424.855469 406.601562 Z M 467.707031 449.453125 L 404.128906 449.453125 L 404.128906 385.875 L 467.707031 385.875 L 467.707031 449.453125 " fill-opacity="1" fill-rule="nonzero"/><path fill="#478ff1" d="M 500.179688 439.074219 L 457.363281 439.074219 L 457.363281 396.222656 L 500.179688 396.222656 L 500.179688 439.074219 " fill-opacity="1" fill-rule="nonzero"/><path fill="#000000" d="M 467.707031 428.691406 L 489.835938 428.691406 L 489.835938 406.601562 L 467.707031 406.601562 Z M 510.5625 449.453125 L 446.984375 449.453125 L 446.984375 385.875 L 510.5625 385.875 L 510.5625 449.453125 " fill-opacity="1" fill-rule="nonzero"/><path fill="#ffffff" d="M 543.035156 439.074219 L 500.179688 439.074219 L 500.179688 396.222656 L 543.035156 396.222656 L 543.035156 439.074219 " fill-opacity="1" fill-rule="nonzero"/><path fill="#000000" d="M 510.5625 428.691406 L 532.652344 428.691406 L 532.652344 406.601562 L 510.5625 406.601562 Z M 553.414062 449.453125 L 489.835938 449.453125 L 489.835938 385.875 L 553.414062 385.875 L 553.414062 449.453125 " fill-opacity="1" fill-rule="nonzero"/><path fill="#ffffff" d="M 457.363281 481.925781 L 414.511719 481.925781 L 414.511719 439.074219 L 457.363281 439.074219 L 457.363281 481.925781 " fill-opacity="1" fill-rule="nonzero"/><path fill="#000000" d="M 424.855469 471.546875 L 446.984375 471.546875 L 446.984375 449.453125 L 424.855469 449.453125 Z M 467.707031 492.273438 L 404.128906 492.273438 L 404.128906 428.691406 L 467.707031 428.691406 L 467.707031 492.273438 " fill-opacity="1" fill-rule="nonzero"/><path fill="#478ff1" d="M 500.179688 481.925781 L 457.363281 481.925781 L 457.363281 439.074219 L 500.179688 439.074219 L 500.179688 481.925781 " fill-opacity="1" fill-rule="nonzero"/><path fill="#000000" d="M 467.707031 471.546875 L 489.835938 471.546875 L 489.835938 449.453125 L 467.707031 449.453125 Z M 510.5625 492.273438 L 446.984375 492.273438 L 446.984375 428.691406 L 510.5625 428.691406 L 510.5625 492.273438 " fill-opacity="1" fill-rule="nonzero"/><path fill="#ffffff" d="M 543.035156 481.925781 L 500.179688 481.925781 L 500.179688 439.074219 L 543.035156 439.074219 L 543.035156 481.925781 " fill-opacity="1" fill-rule="nonzero"/><path fill="#000000" d="M 510.5625 471.546875 L 532.652344 471.546875 L 532.652344 449.453125 L 510.5625 449.453125 Z M 553.414062 492.273438 L 489.835938 492.273438 L 489.835938 428.691406 L 553.414062 428.691406 L 553.414062 492.273438 " fill-opacity="1" fill-rule="nonzero"/><path fill="#ffffff" d="M 457.363281 524.742188 L 414.511719 524.742188 L 414.511719 481.925781 L 457.363281 481.925781 L 457.363281 524.742188 " fill-opacity="1" fill-rule="nonzero"/><path fill="#000000" d="M 424.855469 514.398438 L 446.984375 514.398438 L 446.984375 492.273438 L 424.855469 492.273438 Z M 467.707031 535.125 L 404.128906 535.125 L 404.128906 471.546875 L 467.707031 471.546875 L 467.707031 535.125 " fill-opacity="1" fill-rule="nonzero"/><path fill="#478ff1" d="M 500.179688 524.742188 L 457.363281 524.742188 L 457.363281 481.925781 L 500.179688 481.925781 L 500.179688 524.742188 " fill-opacity="1" fill-rule="nonzero"/><path fill="#000000" d="M 467.707031 514.398438 L 489.835938 514.398438 L 489.835938 492.273438 L 467.707031 492.273438 Z M 510.5625 535.125 L 446.984375 535.125 L 446.984375 471.546875 L 510.5625 471.546875 L 510.5625 535.125 " fill-opacity="1" fill-rule="nonzero"/><path fill="#ffffff" d="M 543.035156 524.742188 L 500.179688 524.742188 L 500.179688 481.925781 L 543.035156 481.925781 L 543.035156 524.742188 " fill-opacity="1" fill-rule="nonzero"/><path fill="#000000" d="M 510.5625 514.398438 L 532.652344 514.398438 L 532.652344 492.273438 L 510.5625 492.273438 Z M 553.414062 535.125 L 489.835938 535.125 L 489.835938 471.546875 L 553.414062 471.546875 L 553.414062 535.125 " fill-opacity="1" fill-rule="nonzero"/><path fill="#ffffff" d="M 457.363281 567.597656 L 414.511719 567.597656 L 414.511719 524.742188 L 457.363281 524.742188 L 457.363281 567.597656 " fill-opacity="1" fill-rule="nonzero"/><path fill="#000000" d="M 424.855469 557.214844 L 446.984375 557.214844 L 446.984375 535.125 L 424.855469 535.125 Z M 467.707031 577.976562 L 404.128906 577.976562 L 404.128906 514.398438 L 467.707031 514.398438 L 467.707031 577.976562 " fill-opacity="1" fill-rule="nonzero"/><path fill="#478ff1" d="M 500.179688 567.597656 L 457.363281 567.597656 L 457.363281 524.742188 L 500.179688 524.742188 L 500.179688 567.597656 " fill-opacity="1" fill-rule="nonzero"/><path fill="#000000" d="M 467.707031 557.214844 L 489.835938 557.214844 L 489.835938 535.125 L 467.707031 535.125 Z M 510.5625 577.976562 L 446.984375 577.976562 L 446.984375 514.398438 L 510.5625 514.398438 L 510.5625 577.976562 " fill-opacity="1" fill-rule="nonzero"/><path fill="#ffffff" d="M 543.035156 567.597656 L 500.179688 567.597656 L 500.179688 524.742188 L 543.035156 524.742188 L 543.035156 567.597656 " fill-opacity="1" fill-rule="nonzero"/><path fill="#000000" d="M 510.5625 557.214844 L 532.652344 557.214844 L 532.652344 535.125 L 510.5625 535.125 Z M 553.414062 577.976562 L 489.835938 577.976562 L 489.835938 514.398438 L 553.414062 514.398438 L 553.414062 577.976562 " fill-opacity="1" fill-rule="nonzero"/><path fill="#478ff1" d="M 457.363281 610.449219 L 414.511719 610.449219 L 414.511719 567.597656 L 457.363281 567.597656 L 457.363281 610.449219 " fill-opacity="1" fill-rule="nonzero"/><path fill="#000000" d="M 424.855469 600.066406 L 446.984375 600.066406 L 446.984375 577.976562 L 424.855469 577.976562 Z M 467.707031 620.792969 L 404.128906 620.792969 L 404.128906 557.214844 L 467.707031 557.214844 L 467.707031 620.792969 " fill-opacity="1" fill-rule="nonzero"/><path fill="#478ff1" d="M 500.179688 610.449219 L 457.363281 610.449219 L 457.363281 567.597656 L 500.179688 567.597656 L 500.179688 610.449219 " fill-opacity="1" fill-rule="nonzero"/><path fill="#000000" d="M 467.707031 600.066406 L 489.835938 600.066406 L 489.835938 577.976562 L 467.707031 577.976562 Z M 510.5625 620.792969 L 446.984375 620.792969 L 446.984375 557.214844 L 510.5625 557.214844 L 510.5625 620.792969 " fill-opacity="1" fill-rule="nonzero"/><path fill="#ffffff" d="M 543.035156 610.449219 L 500.179688 610.449219 L 500.179688 567.597656 L 543.035156 567.597656 L 543.035156 610.449219 " fill-opacity="1" fill-rule="nonzero"/><path fill="#000000" d="M 510.5625 600.066406 L 532.652344 600.066406 L 532.652344 577.976562 L 510.5625 577.976562 Z M 553.414062 620.792969 L 489.835938 620.792969 L 489.835938 557.214844 L 553.414062 557.214844 L 553.414062 620.792969 " fill-opacity="1" fill-rule="nonzero"/><path fill="#ffffff" d="M 457.363281 653.265625 L 414.511719 653.265625 L 414.511719 610.449219 L 457.363281 610.449219 L 457.363281 653.265625 " fill-opacity="1" fill-rule="nonzero"/><g clip-path="url(#a219e252f7)"><path fill="#000000" d="M 424.855469 642.921875 L 446.984375 642.921875 L 446.984375 620.792969 L 424.855469 620.792969 Z M 467.707031 663.648438 L 404.128906 663.648438 L 404.128906 600.066406 L 467.707031 600.066406 L 467.707031 663.648438 " fill-opacity="1" fill-rule="nonzero"/></g><path fill="#ffffff" d="M 500.179688 653.265625 L 457.363281 653.265625 L 457.363281 610.449219 L 500.179688 610.449219 L 500.179688 653.265625 " fill-opacity="1" fill-rule="nonzero"/><g clip-path="url(#0a41cb6971)"><path fill="#000000" d="M 467.707031 642.921875 L 489.835938 642.921875 L 489.835938 620.792969 L 467.707031 620.792969 Z M 510.5625 663.648438 L 446.984375 663.648438 L 446.984375 600.066406 L 510.5625 600.066406 L 510.5625 663.648438 " fill-opacity="1" fill-rule="nonzero"/></g><path fill="#ffffff" d="M 543.035156 653.265625 L 500.179688 653.265625 L 500.179688 610.449219 L 543.035156 610.449219 L 543.035156 653.265625 " fill-opacity="1" fill-rule="nonzero"/><g clip-path="url(#1558deb98b)"><path fill="#000000" d="M 510.5625 642.921875 L 532.652344 642.921875 L 532.652344 620.792969 L 510.5625 620.792969 Z M 553.414062 663.648438 L 489.835938 663.648438 L 489.835938 600.066406 L 553.414062 600.066406 L 553.414062 663.648438 " fill-opacity="1" fill-rule="nonzero"/></g><path fill="#ffffff" d="M 371.660156 310.550781 L 371.660156 267.699219 L 414.511719 267.699219 L 414.511719 310.550781 L 371.660156 310.550781 " fill-opacity="1" fill-rule="nonzero"/><path fill="#000000" d="M 382.039062 300.171875 L 404.128906 300.171875 L 404.128906 278.042969 L 382.039062 278.042969 Z M 424.855469 320.894531 L 361.3125 320.894531 L 361.3125 257.316406 L 424.855469 257.316406 L 424.855469 320.894531 " fill-opacity="1" fill-rule="nonzero"/><path fill="#f65555" d="M 371.660156 353.367188 L 371.660156 310.550781 L 414.511719 310.550781 L 414.511719 353.367188 L 371.660156 353.367188 " fill-opacity="1" fill-rule="nonzero"/><path fill="#000000" d="M 382.039062 343.023438 L 404.128906 343.023438 L 404.128906 320.894531 L 382.039062 320.894531 Z M 424.855469 363.75 L 361.3125 363.75 L 361.3125 300.171875 L 424.855469 300.171875 L 424.855469 363.75 " fill-opacity="1" fill-rule="nonzero"/><path fill="#ffffff" d="M 371.660156 396.222656 L 371.660156 353.367188 L 414.511719 353.367188 L 414.511719 396.222656 L 371.660156 396.222656 " fill-opacity="1" fill-rule="nonzero"/><path fill="#000000" d="M 382.039062 385.875 L 404.128906 385.875 L 404.128906 363.75 L 382.039062 363.75 Z M 424.855469 406.601562 L 361.3125 406.601562 L 361.3125 343.023438 L 424.855469 343.023438 L 424.855469 406.601562 " fill-opacity="1" fill-rule="nonzero"/><path fill="#ffffff" d="M 328.804688 310.550781 L 328.804688 267.699219 L 371.660156 267.699219 L 371.660156 310.550781 L 328.804688 310.550781 " fill-opacity="1" fill-rule="nonzero"/><path fill="#000000" d="M 339.1875 300.171875 L 361.3125 300.171875 L 361.3125 278.042969 L 339.1875 278.042969 Z M 382.039062 320.894531 L 318.460938 320.894531 L 318.460938 257.316406 L 382.039062 257.316406 L 382.039062 320.894531 " fill-opacity="1" fill-rule="nonzero"/><path fill="#f65555" d="M 328.804688 353.367188 L 328.804688 310.550781 L 371.660156 310.550781 L 371.660156 353.367188 L 328.804688 353.367188 " fill-opacity="1" fill-rule="nonzero"/><path fill="#000000" d="M 339.1875 343.023438 L 361.3125 343.023438 L 361.3125 320.894531 L 339.1875 320.894531 Z M 382.039062 363.75 L 318.460938 363.75 L 318.460938 300.171875 L 382.039062 300.171875 L 382.039062 363.75 " fill-opacity="1" fill-rule="nonzero"/><path fill="#ffffff" d="M 328.804688 396.222656 L 328.804688 353.367188 L 371.660156 353.367188 L 371.660156 396.222656 L 328.804688 396.222656 " fill-opacity="1" fill-rule="nonzero"/><path fill="#000000" d="M 339.1875 385.875 L 361.3125 385.875 L 361.3125 363.75 L 339.1875 363.75 Z M 382.039062 406.601562 L 318.460938 406.601562 L 318.460938 343.023438 L 382.039062 343.023438 L 382.039062 406.601562 " fill-opacity="1" fill-rule="nonzero"/><path fill="#ffffff" d="M 285.988281 310.550781 L 285.988281 267.699219 L 328.804688 267.699219 L 328.804688 310.550781 L 285.988281 310.550781 " fill-opacity="1" fill-rule="nonzero"/><path fill="#000000" d="M 296.332031 300.171875 L 318.460938 300.171875 L 318.460938 278.042969 L 296.332031 278.042969 Z M 339.1875 320.894531 L 275.609375 320.894531 L 275.609375 257.316406 L 339.1875 257.316406 L 339.1875 320.894531 " fill-opacity="1" fill-rule="nonzero"/><path fill="#f65555" d="M 285.988281 353.367188 L 285.988281 310.550781 L 328.804688 310.550781 L 328.804688 353.367188 L 285.988281 353.367188 " fill-opacity="1" fill-rule="nonzero"/><path fill="#000000" d="M 296.332031 343.023438 L 318.460938 343.023438 L 318.460938 320.894531 L 296.332031 320.894531 Z M 339.1875 363.75 L 275.609375 363.75 L 275.609375 300.171875 L 339.1875 300.171875 L 339.1875 363.75 " fill-opacity="1" fill-rule="nonzero"/><path fill="#ffffff" d="M 285.988281 396.222656 L 285.988281 353.367188 L 328.804688 353.367188 L 328.804688 396.222656 L 285.988281 396.222656 " fill-opacity="1" fill-rule="nonzero"/><path fill="#000000" d="M 296.332031 385.875 L 318.460938 385.875 L 318.460938 363.75 L 296.332031 363.75 Z M 339.1875 406.601562 L 275.609375 406.601562 L 275.609375 343.023438 L 339.1875 343.023438 L 339.1875 406.601562 " fill-opacity="1" fill-rule="nonzero"/><path fill="#ffffff" d="M 243.136719 310.550781 L 243.136719 267.699219 L 285.988281 267.699219 L 285.988281 310.550781 L 243.136719 310.550781 " fill-opacity="1" fill-rule="nonzero"/><path fill="#000000" d="M 253.515625 300.171875 L 275.609375 300.171875 L 275.609375 278.042969 L 253.515625 278.042969 Z M 296.332031 320.894531 L 232.753906 320.894531 L 232.753906 257.316406 L 296.332031 257.316406 L 296.332031 320.894531 " fill-opacity="1" fill-rule="nonzero"/><path fill="#f65555" d="M 243.136719 353.367188 L 243.136719 310.550781 L 285.988281 310.550781 L 285.988281 353.367188 L 243.136719 353.367188 " fill-opacity="1" fill-rule="nonzero"/><path fill="#000000" d="M 253.515625 343.023438 L 275.609375 343.023438 L 275.609375 320.894531 L 253.515625 320.894531 Z M 296.332031 363.75 L 232.753906 363.75 L 232.753906 300.171875 L 296.332031 300.171875 L 296.332031 363.75 " fill-opacity="1" fill-rule="nonzero"/><path fill="#ffffff" d="M 243.136719 396.222656 L 243.136719 353.367188 L 285.988281 353.367188 L 285.988281 396.222656 L 243.136719 396.222656 " fill-opacity="1" fill-rule="nonzero"/><path fill="#000000" d="M 253.515625 385.875 L 275.609375 385.875 L 275.609375 363.75 L 253.515625 363.75 Z M 296.332031 406.601562 L 232.753906 406.601562 L 232.753906 343.023438 L 296.332031 343.023438 L 296.332031 406.601562 " fill-opacity="1" fill-rule="nonzero"/><path fill="#f65555" d="M 200.285156 310.550781 L 200.285156 267.699219 L 243.136719 267.699219 L 243.136719 310.550781 L 200.285156 310.550781 " fill-opacity="1" fill-rule="nonzero"/><path fill="#000000" d="M 210.664062 300.171875 L 232.753906 300.171875 L 232.753906 278.042969 L 210.664062 278.042969 Z M 253.515625 320.894531 L 189.9375 320.894531 L 189.9375 257.316406 L 253.515625 257.316406 L 253.515625 320.894531 " fill-opacity="1" fill-rule="nonzero"/><path fill="#f65555" d="M 200.285156 353.367188 L 200.285156 310.550781 L 243.136719 310.550781 L 243.136719 353.367188 L 200.285156 353.367188 " fill-opacity="1" fill-rule="nonzero"/><path fill="#000000" d="M 210.664062 343.023438 L 232.753906 343.023438 L 232.753906 320.894531 L 210.664062 320.894531 Z M 253.515625 363.75 L 189.9375 363.75 L 189.9375 300.171875 L 253.515625 300.171875 L 253.515625 363.75 " fill-opacity="1" fill-rule="nonzero"/><path fill="#ffffff" d="M 200.285156 396.222656 L 200.285156 353.367188 L 243.136719 353.367188 L 243.136719 396.222656 L 200.285156 396.222656 " fill-opacity="1" fill-rule="nonzero"/><path fill="#000000" d="M 210.664062 385.875 L 232.753906 385.875 L 232.753906 363.75 L 210.664062 363.75 Z M 253.515625 406.601562 L 189.9375 406.601562 L 189.9375 343.023438 L 253.515625 343.023438 L 253.515625 406.601562 " fill-opacity="1" fill-rule="nonzero"/><path fill="#ffffff" d="M 157.429688 310.550781 L 157.429688 267.699219 L 200.285156 267.699219 L 200.285156 310.550781 L 157.429688 310.550781 " fill-opacity="1" fill-rule="nonzero"/><path fill="#000000" d="M 167.8125 300.171875 L 189.9375 300.171875 L 189.9375 278.042969 L 167.8125 278.042969 Z M 210.664062 320.894531 L 147.085938 320.894531 L 147.085938 257.316406 L 210.664062 257.316406 L 210.664062 320.894531 " fill-opacity="1" fill-rule="nonzero"/><path fill="#ffffff" d="M 157.429688 353.367188 L 157.429688 310.550781 L 200.285156 310.550781 L 200.285156 353.367188 L 157.429688 353.367188 " fill-opacity="1" fill-rule="nonzero"/><path fill="#000000" d="M 167.8125 343.023438 L 189.9375 343.023438 L 189.9375 320.894531 L 167.8125 320.894531 Z M 210.664062 363.75 L 147.085938 363.75 L 147.085938 300.171875 L 210.664062 300.171875 L 210.664062 363.75 " fill-opacity="1" fill-rule="nonzero"/><path fill="#ffffff" d="M 157.429688 396.222656 L 157.429688 353.367188 L 200.285156 353.367188 L 200.285156 396.222656 L 157.429688 396.222656 " fill-opacity="1" fill-rule="nonzero"/><path fill="#000000" d="M 167.8125 385.875 L 189.9375 385.875 L 189.9375 363.75 L 167.8125 363.75 Z M 210.664062 406.601562 L 147.085938 406.601562 L 147.085938 343.023438 L 210.664062 343.023438 L 210.664062 406.601562 " fill-opacity="1" fill-rule="nonzero"/><path fill="#ffffff" d="M 757.261719 310.550781 L 757.261719 267.699219 L 800.113281 267.699219 L 800.113281 310.550781 L 757.261719 310.550781 " fill-opacity="1" fill-rule="nonzero"/><g clip-path="url(#ced5efd94f)"><path fill="#000000" d="M 767.605469 300.171875 L 789.734375 300.171875 L 789.734375 278.042969 L 767.605469 278.042969 Z M 810.460938 320.894531 L 746.878906 320.894531 L 746.878906 257.316406 L 810.460938 257.316406 L 810.460938 320.894531 " fill-opacity="1" fill-rule="nonzero"/></g><path fill="#ffffff" d="M 757.261719 353.367188 L 757.261719 310.550781 L 800.113281 310.550781 L 800.113281 353.367188 L 757.261719 353.367188 " fill-opacity="1" fill-rule="nonzero"/><g clip-path="url(#cde5b96722)"><path fill="#000000" d="M 767.605469 343.023438 L 789.734375 343.023438 L 789.734375 320.894531 L 767.605469 320.894531 Z M 810.460938 363.75 L 746.878906 363.75 L 746.878906 300.171875 L 810.460938 300.171875 L 810.460938 363.75 " fill-opacity="1" fill-rule="nonzero"/></g><path fill="#ffffff" d="M 757.261719 396.222656 L 757.261719 353.367188 L 800.113281 353.367188 L 800.113281 396.222656 L 757.261719 396.222656 " fill-opacity="1" fill-rule="nonzero"/><g clip-path="url(#5b3a7dfb48)"><path fill="#000000" d="M 767.605469 385.875 L 789.734375 385.875 L 789.734375 363.75 L 767.605469 363.75 Z M 810.460938 406.601562 L 746.878906 406.601562 L 746.878906 343.023438 L 810.460938 343.023438 L 810.460938 406.601562 " fill-opacity="1" fill-rule="nonzero"/></g><path fill="#ffffff" d="M 714.410156 310.550781 L 714.410156 267.699219 L 757.261719 267.699219 L 757.261719 310.550781 L 714.410156 310.550781 " fill-opacity="1" fill-rule="nonzero"/><path fill="#000000" d="M 724.789062 300.171875 L 746.878906 300.171875 L 746.878906 278.042969 L 724.789062 278.042969 Z M 767.605469 320.894531 L 704.027344 320.894531 L 704.027344 257.316406 L 767.605469 257.316406 L 767.605469 320.894531 " fill-opacity="1" fill-rule="nonzero"/><path fill="#fab91a" d="M 714.410156 353.367188 L 714.410156 310.550781 L 757.261719 310.550781 L 757.261719 353.367188 L 714.410156 353.367188 " fill-opacity="1" fill-rule="nonzero"/><path fill="#000000" d="M 724.789062 343.023438 L 746.878906 343.023438 L 746.878906 320.894531 L 724.789062 320.894531 Z M 767.605469 363.75 L 704.027344 363.75 L 704.027344 300.171875 L 767.605469 300.171875 L 767.605469 363.75 " fill-opacity="1" fill-rule="nonzero"/><path fill="#fab91a" d="M 714.410156 396.222656 L 714.410156 353.367188 L 757.261719 353.367188 L 757.261719 396.222656 L 714.410156 396.222656 " fill-opacity="1" fill-rule="nonzero"/><path fill="#000000" d="M 724.789062 385.875 L 746.878906 385.875 L 746.878906 363.75 L 724.789062 363.75 Z M 767.605469 406.601562 L 704.027344 406.601562 L 704.027344 343.023438 L 767.605469 343.023438 L 767.605469 406.601562 " fill-opacity="1" fill-rule="nonzero"/><path fill="#ffffff" d="M 671.554688 310.550781 L 671.554688 267.699219 L 714.410156 267.699219 L 714.410156 310.550781 L 671.554688 310.550781 " fill-opacity="1" fill-rule="nonzero"/><path fill="#000000" d="M 681.9375 300.171875 L 704.027344 300.171875 L 704.027344 278.042969 L 681.9375 278.042969 Z M 724.789062 320.894531 L 661.210938 320.894531 L 661.210938 257.316406 L 724.789062 257.316406 L 724.789062 320.894531 " fill-opacity="1" fill-rule="nonzero"/><path fill="#fab91a" d="M 671.554688 353.367188 L 671.554688 310.550781 L 714.410156 310.550781 L 714.410156 353.367188 L 671.554688 353.367188 " fill-opacity="1" fill-rule="nonzero"/><path fill="#000000" d="M 681.9375 343.023438 L 704.027344 343.023438 L 704.027344 320.894531 L 681.9375 320.894531 Z M 724.789062 363.75 L 661.210938 363.75 L 661.210938 300.171875 L 724.789062 300.171875 L 724.789062 363.75 " fill-opacity="1" fill-rule="nonzero"/><path fill="#ffffff" d="M 671.554688 396.222656 L 671.554688 353.367188 L 714.410156 353.367188 L 714.410156 396.222656 L 671.554688 396.222656 " fill-opacity="1" fill-rule="nonzero"/><path fill="#000000" d="M 681.9375 385.875 L 704.027344 385.875 L 704.027344 363.75 L 681.9375 363.75 Z M 724.789062 406.601562 L 661.210938 406.601562 L 661.210938 343.023438 L 724.789062 343.023438 L 724.789062 406.601562 " fill-opacity="1" fill-rule="nonzero"/><path fill="#ffffff" d="M 628.738281 310.550781 L 628.738281 267.699219 L 671.554688 267.699219 L 671.554688 310.550781 L 628.738281 310.550781 " fill-opacity="1" fill-rule="nonzero"/><path fill="#000000" d="M 639.082031 300.171875 L 661.210938 300.171875 L 661.210938 278.042969 L 639.082031 278.042969 Z M 681.9375 320.894531 L 618.359375 320.894531 L 618.359375 257.316406 L 681.9375 257.316406 L 681.9375 320.894531 " fill-opacity="1" fill-rule="nonzero"/><path fill="#fab91a" d="M 628.738281 353.367188 L 628.738281 310.550781 L 671.554688 310.550781 L 671.554688 353.367188 L 628.738281 353.367188 " fill-opacity="1" fill-rule="nonzero"/><path fill="#000000" d="M 639.082031 343.023438 L 661.210938 343.023438 L 661.210938 320.894531 L 639.082031 320.894531 Z M 681.9375 363.75 L 618.359375 363.75 L 618.359375 300.171875 L 681.9375 300.171875 L 681.9375 363.75 " fill-opacity="1" fill-rule="nonzero"/><path fill="#ffffff" d="M 628.738281 396.222656 L 628.738281 353.367188 L 671.554688 353.367188 L 671.554688 396.222656 L 628.738281 396.222656 " fill-opacity="1" fill-rule="nonzero"/><path fill="#000000" d="M 639.082031 385.875 L 661.210938 385.875 L 661.210938 363.75 L 639.082031 363.75 Z M 681.9375 406.601562 L 618.359375 406.601562 L 618.359375 343.023438 L 681.9375 343.023438 L 681.9375 406.601562 " fill-opacity="1" fill-rule="nonzero"/><path fill="#ffffff" d="M 585.886719 310.550781 L 585.886719 267.699219 L 628.738281 267.699219 L 628.738281 310.550781 L 585.886719 310.550781 " fill-opacity="1" fill-rule="nonzero"/><path fill="#000000" d="M 596.230469 300.171875 L 618.359375 300.171875 L 618.359375 278.042969 L 596.230469 278.042969 Z M 639.082031 320.894531 L 575.503906 320.894531 L 575.503906 257.316406 L 639.082031 257.316406 L 639.082031 320.894531 " fill-opacity="1" fill-rule="nonzero"/><path fill="#fab91a" d="M 585.886719 353.367188 L 585.886719 310.550781 L 628.738281 310.550781 L 628.738281 353.367188 L 585.886719 353.367188 " fill-opacity="1" fill-rule="nonzero"/><path fill="#000000" d="M 596.230469 343.023438 L 618.359375 343.023438 L 618.359375 320.894531 L 596.230469 320.894531 Z M 639.082031 363.75 L 575.503906 363.75 L 575.503906 300.171875 L 639.082031 300.171875 L 639.082031 363.75 " fill-opacity="1" fill-rule="nonzero"/><path fill="#ffffff" d="M 585.886719 396.222656 L 585.886719 353.367188 L 628.738281 353.367188 L 628.738281 396.222656 L 585.886719 396.222656 " fill-opacity="1" fill-rule="nonzero"/><path fill="#000000" d="M 596.230469 385.875 L 618.359375 385.875 L 618.359375 363.75 L 596.230469 363.75 Z M 639.082031 406.601562 L 575.503906 406.601562 L 575.503906 343.023438 L 639.082031 343.023438 L 639.082031 406.601562 " fill-opacity="1" fill-rule="nonzero"/><path fill="#ffffff" d="M 543.035156 310.550781 L 543.035156 267.699219 L 585.886719 267.699219 L 585.886719 310.550781 L 543.035156 310.550781 " fill-opacity="1" fill-rule="nonzero"/><path fill="#000000" d="M 553.414062 300.171875 L 575.503906 300.171875 L 575.503906 278.042969 L 553.414062 278.042969 Z M 596.230469 320.894531 L 532.652344 320.894531 L 532.652344 257.316406 L 596.230469 257.316406 L 596.230469 320.894531 " fill-opacity="1" fill-rule="nonzero"/><path fill="#fab91a" d="M 543.035156 353.367188 L 543.035156 310.550781 L 585.886719 310.550781 L 585.886719 353.367188 L 543.035156 353.367188 " fill-opacity="1" fill-rule="nonzero"/><path fill="#000000" d="M 553.414062 343.023438 L 575.503906 343.023438 L 575.503906 320.894531 L 553.414062 320.894531 Z M 596.230469 363.75 L 532.652344 363.75 L 532.652344 300.171875 L 596.230469 300.171875 L 596.230469 363.75 " fill-opacity="1" fill-rule="nonzero"/><path fill="#ffffff" d="M 543.035156 396.222656 L 543.035156 353.367188 L 585.886719 353.367188 L 585.886719 396.222656 L 543.035156 396.222656 " fill-opacity="1" fill-rule="nonzero"/><path fill="#000000" d="M 553.414062 385.875 L 575.503906 385.875 L 575.503906 363.75 L 553.414062 363.75 Z M 596.230469 406.601562 L 532.652344 406.601562 L 532.652344 343.023438 L 596.230469 343.023438 L 596.230469 406.601562 " fill-opacity="1" fill-rule="nonzero"/><path fill="#ffffff" d="M 457.363281 139.175781 L 414.511719 139.175781 L 414.511719 181.992188 L 457.363281 181.992188 L 457.363281 139.175781 " fill-opacity="1" fill-rule="nonzero"/><path fill="#000000" d="M 424.855469 171.648438 L 446.984375 171.648438 L 446.984375 149.519531 L 424.855469 149.519531 Z M 467.707031 192.375 L 404.128906 192.375 L 404.128906 128.796875 L 467.707031 128.796875 L 467.707031 192.375 " fill-opacity="1" fill-rule="nonzero"/><path fill="#2ed95e" d="M 500.179688 181.992188 L 500.179688 139.175781 L 457.363281 139.175781 L 457.363281 181.992188 L 500.179688 181.992188 " fill-opacity="1" fill-rule="nonzero"/><path fill="#000000" d="M 467.707031 171.648438 L 489.835938 171.648438 L 489.835938 149.519531 L 467.707031 149.519531 Z M 510.5625 192.375 L 446.984375 192.375 L 446.984375 128.796875 L 510.5625 128.796875 L 510.5625 192.375 " fill-opacity="1" fill-rule="nonzero"/><path fill="#ffffff" d="M 543.035156 181.992188 L 543.035156 139.175781 L 500.179688 139.175781 L 500.179688 181.992188 L 543.035156 181.992188 " fill-opacity="1" fill-rule="nonzero"/><path fill="#000000" d="M 510.5625 171.648438 L 532.652344 171.648438 L 532.652344 149.519531 L 510.5625 149.519531 Z M 553.414062 192.375 L 489.835938 192.375 L 489.835938 128.796875 L 553.414062 128.796875 L 553.414062 192.375 " fill-opacity="1" fill-rule="nonzero"/><path fill="#478ff1" d="M 414.511719 396.222656 L 543.035156 396.222656 L 478.773438 331.960938 L 414.511719 396.222656 " fill-opacity="1" fill-rule="nonzero"/><path fill="#000000" d="M 439.511719 385.875 L 518.03125 385.875 L 478.773438 346.613281 Z M 568.070312 406.601562 L 389.476562 406.601562 L 478.773438 317.304688 L 568.070312 406.601562 " fill-opacity="1" fill-rule="nonzero"/><path fill="#fab91a" d="M 543.035156 267.699219 L 478.773438 331.960938 L 543.035156 396.222656 L 543.035156 267.699219 " fill-opacity="1" fill-rule="nonzero"/><path fill="#000000" d="M 493.425781 331.960938 L 532.652344 371.21875 L 532.652344 292.699219 Z M 553.414062 421.257812 L 464.117188 331.960938 L 553.414062 242.664062 L 553.414062 421.257812 " fill-opacity="1" fill-rule="nonzero"/><path fill="#2ed95e" d="M 543.035156 267.699219 L 414.511719 267.699219 L 478.773438 331.960938 Z M 543.035156 267.699219 " fill-opacity="1" fill-rule="nonzero"/><path fill="#000000" d="M 439.511719 278.042969 L 478.773438 317.304688 L 518.03125 278.042969 Z M 478.773438 346.613281 L 389.476562 257.316406 L 568.070312 257.316406 L 478.773438 346.613281 " fill-opacity="1" fill-rule="nonzero"/><path fill="#f65555" d="M 414.511719 267.699219 L 414.511719 396.222656 L 478.773438 331.960938 L 414.511719 267.699219 " fill-opacity="1" fill-rule="nonzero"/><path fill="#000000" d="M 424.855469 292.699219 L 424.855469 371.21875 L 464.117188 331.960938 Z M 404.128906 421.257812 L 404.128906 242.664062 L 493.425781 331.960938 L 404.128906 421.257812 " fill-opacity="1" fill-rule="nonzero"/><path fill="#000000" d="M 243.460938 117.410156 L 243.460938 96.648438 L 264.222656 96.648438 L 264.222656 117.410156 C 243.460938 117.410156 264.222656 117.410156 243.460938 117.410156 Z M 305.671875 117.410156 L 305.671875 96.648438 L 326.398438 96.648438 L 326.398438 117.410156 C 305.671875 117.410156 326.398438 117.410156 305.671875 117.410156 " fill-opacity="1" fill-rule="nonzero"/><path fill="#000000" d="M 243.460938 181.667969 L 243.460938 160.945312 L 264.222656 160.945312 L 264.222656 181.667969 C 243.460938 181.667969 264.222656 181.667969 243.460938 181.667969 Z M 305.671875 181.667969 L 305.671875 160.945312 L 326.398438 160.945312 L 326.398438 181.667969 C 305.671875 181.667969 326.398438 181.667969 305.671875 181.667969 " fill-opacity="1" fill-rule="nonzero"/><path fill="#000000" d="M 629.0625 117.410156 L 629.0625 96.648438 L 649.789062 96.648438 L 649.789062 117.410156 C 629.0625 117.410156 649.789062 117.410156 629.0625 117.410156 Z M 691.277344 117.410156 L 691.277344 96.648438 L 712 96.648438 L 712 117.410156 C 691.277344 117.410156 712 117.410156 691.277344 117.410156 " fill-opacity="1" fill-rule="nonzero"/><path fill="#000000" d="M 629.0625 181.667969 L 629.0625 160.945312 L 649.789062 160.945312 L 649.789062 181.667969 C 629.0625 181.667969 649.789062 181.667969 629.0625 181.667969 Z M 691.277344 181.667969 L 691.277344 160.945312 L 712 160.945312 L 712 181.667969 C 691.277344 181.667969 712 181.667969 691.277344 181.667969 " fill-opacity="1" fill-rule="nonzero"/><path fill="#000000" d="M 629.0625 502.976562 L 629.0625 482.25 L 649.789062 482.25 L 649.789062 502.976562 C 629.0625 502.976562 649.789062 502.976562 629.0625 502.976562 Z M 691.277344 502.976562 L 691.277344 482.25 L 712 482.25 L 712 502.976562 C 691.277344 502.976562 712 502.976562 691.277344 502.976562 " fill-opacity="1" fill-rule="nonzero"/><path fill="#000000" d="M 629.0625 567.238281 L 629.0625 546.511719 L 649.789062 546.511719 L 649.789062 567.238281 C 629.0625 567.238281 649.789062 567.238281 629.0625 567.238281 Z M 691.277344 567.238281 L 691.277344 546.511719 L 712 546.511719 L 712 567.238281 C 691.277344 567.238281 712 567.238281 691.277344 567.238281 " fill-opacity="1" fill-rule="nonzero"/><path fill="#000000" d="M 243.460938 502.976562 L 243.460938 482.25 L 264.222656 482.25 L 264.222656 502.976562 C 243.460938 502.976562 264.222656 502.976562 243.460938 502.976562 Z M 305.671875 502.976562 L 305.671875 482.25 L 326.398438 482.25 L 326.398438 502.976562 C 305.671875 502.976562 326.398438 502.976562 305.671875 502.976562 " fill-opacity="1" fill-rule="nonzero"/><path fill="#000000" d="M 243.460938 567.238281 L 243.460938 546.511719 L 264.222656 546.511719 L 264.222656 567.238281 C 243.460938 567.238281 264.222656 567.238281 243.460938 567.238281 Z M 305.671875 567.238281 L 305.671875 546.511719 L 326.398438 546.511719 L 326.398438 567.238281 C 305.671875 567.238281 326.398438 567.238281 305.671875 567.238281 " fill-opacity="1" fill-rule="nonzero"/><g clip-path="url(#40947adfb7)"><g clip-path="url(#02ac3e5314)"><g clip-path="url(#93ec87d5b2)"><path fill="#cf2e2e" d="M 109.265625 751.238281 L 105.410156 747.667969 C 105.972656 750.238281 106.226562 752.839844 106.171875 755.46875 C 106.03125 774.992188 89.074219 794.289062 69.472656 797.066406 C 66.125 797.574219 62.777344 797.597656 59.421875 797.136719 L 63.292969 800.726562 C 88.726562 823.402344 133.6875 774.605469 109.265625 751.238281 Z M 109.265625 751.238281 " fill-opacity="1" fill-rule="nonzero"/></g></g></g><g clip-path="url(#d00e992be6)"><g clip-path="url(#f88711a072)"><g clip-path="url(#83fe92f199)"><path fill="#cf2e2e" d="M 68.691406 791.921875 C 85.214844 789.632812 99.828125 773.542969 100.890625 757.269531 C 100.949219 756.773438 100.996094 756.277344 101.023438 755.777344 C 101.054688 755.277344 101.066406 754.78125 101.066406 754.28125 C 101.066406 753.78125 101.046875 753.28125 101.015625 752.78125 C 100.984375 752.28125 100.933594 751.785156 100.871094 751.289062 C 100.808594 750.792969 100.730469 750.300781 100.636719 749.808594 C 100.542969 749.320312 100.433594 748.832031 100.308594 748.347656 C 100.1875 747.863281 100.046875 747.382812 99.894531 746.90625 C 99.738281 746.429688 99.570312 745.960938 99.390625 745.496094 C 99.207031 745.03125 99.007812 744.570312 98.796875 744.117188 C 98.585938 743.664062 98.363281 743.21875 98.125 742.78125 C 97.886719 742.339844 97.632812 741.910156 97.367188 741.484375 C 97.101562 741.0625 96.824219 740.648438 96.535156 740.242188 C 96.242188 739.835938 95.941406 739.4375 95.625 739.050781 C 95.308594 738.660156 94.980469 738.285156 94.644531 737.917969 C 94.304688 737.550781 93.953125 737.191406 93.59375 736.847656 C 93.230469 736.5 92.859375 736.167969 92.480469 735.84375 C 92.097656 735.519531 91.707031 735.210938 91.304688 734.910156 C 90.90625 734.613281 90.496094 734.328125 90.078125 734.054688 C 89.660156 733.78125 89.230469 733.519531 88.796875 733.273438 C 88.363281 733.027344 87.921875 732.792969 87.472656 732.574219 C 87.023438 732.355469 86.566406 732.148438 86.105469 731.957031 C 85.644531 731.765625 85.175781 731.589844 84.703125 731.425781 C 84.230469 731.261719 83.753906 731.117188 83.273438 730.980469 C 82.792969 730.847656 82.304688 730.730469 81.816406 730.628906 C 81.328125 730.523438 80.835938 730.4375 80.339844 730.363281 C 79.847656 730.292969 79.351562 730.234375 78.851562 730.191406 C 78.355469 730.152344 77.855469 730.125 77.355469 730.113281 C 76.855469 730.101562 76.355469 730.105469 75.855469 730.125 C 75.359375 730.144531 74.859375 730.179688 74.363281 730.230469 C 73.863281 730.28125 73.371094 730.347656 72.875 730.429688 C 72.382812 730.511719 71.894531 730.605469 71.40625 730.71875 C 70.917969 730.828125 70.433594 730.957031 69.957031 731.097656 C 78.527344 734.699219 90.433594 741.042969 88.601562 752.085938 C 88.320312 753.734375 87.921875 755.351562 87.40625 756.945312 C 86.886719 758.535156 86.261719 760.078125 85.519531 761.578125 C 84.78125 763.078125 83.9375 764.515625 82.988281 765.894531 C 82.039062 767.269531 80.996094 768.570312 79.859375 769.796875 C 78.722656 771.023438 77.503906 772.160156 76.199219 773.210938 C 74.898438 774.257812 73.527344 775.207031 72.089844 776.058594 C 70.648438 776.910156 69.15625 777.652344 67.609375 778.285156 C 66.0625 778.917969 64.476562 779.4375 62.851562 779.84375 C 55.433594 781.835938 49.289062 776.457031 45.332031 770.777344 C 43.417969 768.175781 41.769531 765.417969 40.390625 762.496094 C 36.945312 780.019531 50.890625 795.113281 68.691406 791.921875 Z M 68.691406 791.921875 " fill-opacity="1" fill-rule="nonzero"/></g></g></g><g clip-path="url(#50154da12e)"><g clip-path="url(#43af8d6424)"><g clip-path="url(#7bfef7a4a6)"><path fill="#cf2e2e" d="M 48.726562 733.054688 C 48.03125 734.339844 47.214844 735.542969 46.269531 736.660156 C 45.328125 737.777344 44.28125 738.785156 43.128906 739.6875 C 41.976562 740.585938 40.746094 741.359375 39.433594 742.007812 C 38.125 742.652344 36.757812 743.15625 35.34375 743.519531 C 41.824219 747.789062 42.164062 755.425781 45.792969 761.742188 C 47.972656 766.222656 50.949219 770.082031 54.730469 773.324219 C 59.277344 777 65.46875 773.816406 69.816406 771.355469 C 71.609375 770.261719 73.261719 768.992188 74.78125 767.542969 C 76.300781 766.097656 77.648438 764.507812 78.828125 762.769531 C 80.003906 761.035156 80.988281 759.195312 81.773438 757.25 C 82.558594 755.304688 83.132812 753.300781 83.488281 751.230469 C 84.453125 743.367188 75.484375 739.511719 69.515625 736.535156 C 66.179688 735.074219 62.746094 733.914062 59.207031 733.050781 C 57.5625 732.609375 56.019531 731.9375 54.578125 731.035156 C 53.132812 730.132812 51.851562 729.035156 50.738281 727.75 C 50.316406 729.613281 49.648438 731.382812 48.726562 733.054688 Z M 48.726562 733.054688 " fill-opacity="1" fill-rule="nonzero"/></g></g></g><g clip-path="url(#af7713c7d9)"><g clip-path="url(#0aaa23f336)"><g clip-path="url(#a4262fbe2d)"><path fill="#cf2e2e" d="M 28.777344 738.996094 C 29.351562 739.035156 29.921875 739.042969 30.496094 739.019531 C 31.070312 739 31.640625 738.945312 32.207031 738.863281 C 32.773438 738.78125 33.335938 738.667969 33.890625 738.527344 C 34.445312 738.386719 34.992188 738.214844 35.53125 738.015625 C 36.066406 737.816406 36.59375 737.585938 37.105469 737.332031 C 37.621094 737.074219 38.117188 736.792969 38.601562 736.484375 C 39.085938 736.175781 39.550781 735.84375 40 735.488281 C 40.449219 735.128906 40.878906 734.75 41.285156 734.347656 C 41.691406 733.941406 42.078125 733.519531 42.441406 733.078125 C 42.804688 732.632812 43.144531 732.171875 43.457031 731.691406 C 43.773438 731.210938 44.0625 730.714844 44.324219 730.207031 C 44.585938 729.695312 44.820312 729.175781 45.027344 728.640625 C 45.234375 728.105469 45.410156 727.558594 45.558594 727.003906 C 45.707031 726.453125 45.828125 725.890625 45.917969 725.324219 C 46.007812 724.757812 46.066406 724.191406 46.097656 723.617188 C 46.125 723.042969 46.125 722.472656 46.09375 721.898438 C 46.039062 721.117188 45.929688 720.34375 45.761719 719.574219 C 45.597656 718.808594 45.375 718.058594 45.101562 717.324219 C 44.824219 716.589844 44.496094 715.878906 44.121094 715.191406 C 43.742188 714.503906 43.316406 713.847656 42.84375 713.222656 C 42.367188 712.597656 41.851562 712.011719 41.292969 711.460938 C 40.734375 710.910156 40.140625 710.402344 39.507812 709.9375 C 38.875 709.472656 38.214844 709.054688 37.523438 708.6875 C 36.828125 708.320312 36.113281 708.003906 35.375 707.738281 C 34.636719 707.472656 33.882812 707.261719 33.113281 707.105469 C 32.347656 706.953125 31.570312 706.851562 30.789062 706.808594 C 30.003906 706.765625 29.222656 706.777344 28.441406 706.847656 C 27.660156 706.917969 26.886719 707.042969 26.125 707.226562 C 25.363281 707.410156 24.617188 707.644531 23.886719 707.933594 C 23.160156 708.222656 22.453125 708.566406 21.773438 708.957031 C 21.097656 709.347656 20.449219 709.789062 19.832031 710.273438 C 19.214844 710.761719 18.640625 711.289062 18.101562 711.855469 C 8.8125 721.339844 15.550781 738.421875 28.777344 738.996094 Z M 28.777344 738.996094 " fill-opacity="1" fill-rule="nonzero"/></g></g></g><g clip-path="url(#c919955ce3)"><g clip-path="url(#d176f451a3)"><g clip-path="url(#2b1b8524ab)"><path fill="#cf2e2e" d="M 179.132812 740.976562 C 181.808594 747.148438 182.984375 755.023438 177.628906 760.128906 C 176.449219 761.3125 175.1875 762.40625 173.847656 763.40625 C 172.507812 764.40625 171.105469 765.304688 169.632812 766.101562 C 168.164062 766.898438 166.644531 767.585938 165.074219 768.164062 C 163.507812 768.742188 161.902344 769.199219 160.265625 769.546875 C 158.632812 769.890625 156.980469 770.117188 155.308594 770.21875 C 153.640625 770.324219 151.972656 770.308594 150.308594 770.175781 C 148.640625 770.039062 146.992188 769.78125 145.363281 769.40625 C 143.734375 769.03125 142.140625 768.539062 140.582031 767.933594 C 133.371094 765.28125 131.460938 757.339844 131.507812 750.417969 C 131.445312 747.1875 131.691406 743.984375 132.25 740.800781 C 130.675781 742.261719 129.308594 743.894531 128.144531 745.699219 C 126.980469 747.503906 126.058594 749.425781 125.378906 751.460938 C 124.699219 753.5 124.28125 755.585938 124.128906 757.730469 C 123.972656 759.871094 124.085938 761.996094 124.46875 764.109375 C 127.617188 780.304688 147.910156 787.746094 163.136719 783.980469 C 179.035156 781.027344 193.992188 766.429688 190.550781 750.230469 C 190.058594 748.183594 189.324219 746.230469 188.351562 744.367188 C 187.378906 742.503906 186.191406 740.789062 184.792969 739.21875 C 183.394531 737.648438 181.824219 736.269531 180.085938 735.085938 C 178.347656 733.90625 176.492188 732.953125 174.519531 732.226562 C 176.339844 734.996094 177.878906 737.910156 179.132812 740.976562 Z M 179.132812 740.976562 " fill-opacity="1" fill-rule="nonzero"/></g></g></g><g clip-path="url(#4e2dd5cecd)"><g clip-path="url(#9def8016bf)"><g clip-path="url(#7548883646)"><path fill="#cf2e2e" d="M 188.660156 774.761719 C 180.359375 785.058594 165.277344 791 151.644531 789.972656 C 149.445312 789.863281 147.273438 789.566406 145.128906 789.085938 C 142.984375 788.601562 140.894531 787.9375 138.863281 787.09375 C 136.832031 786.25 134.886719 785.242188 133.027344 784.0625 C 131.171875 782.882812 129.429688 781.554688 127.800781 780.078125 L 128.886719 785.242188 C 129.1875 786.746094 129.644531 788.203125 130.253906 789.613281 C 130.867188 791.019531 131.621094 792.347656 132.519531 793.597656 C 133.414062 794.84375 134.433594 795.980469 135.574219 797.011719 C 136.710938 798.039062 137.949219 798.9375 139.28125 799.699219 C 155.609375 808.925781 180.390625 803.464844 191.292969 788.78125 C 192.207031 787.546875 192.976562 786.230469 193.609375 784.828125 C 194.238281 783.429688 194.714844 781.976562 195.035156 780.472656 C 195.355469 778.972656 195.511719 777.453125 195.503906 775.914062 C 195.496094 774.378906 195.324219 772.863281 194.992188 771.363281 L 193.90625 766.222656 C 192.585938 769.332031 190.839844 772.179688 188.660156 774.761719 Z M 188.660156 774.761719 " fill-opacity="1" fill-rule="nonzero"/></g></g></g><g clip-path="url(#faf8c77d7e)"><g clip-path="url(#534155a186)"><g clip-path="url(#e978a51a5d)"><path fill="#cf2e2e" d="M 142.460938 763.097656 C 143.789062 763.605469 145.140625 764.019531 146.527344 764.335938 C 147.910156 764.652344 149.308594 764.867188 150.726562 764.980469 C 152.140625 765.09375 153.558594 765.105469 154.972656 765.015625 C 156.390625 764.925781 157.792969 764.734375 159.183594 764.445312 C 160.574219 764.152344 161.933594 763.761719 163.269531 763.273438 C 164.601562 762.785156 165.890625 762.203125 167.140625 761.53125 C 168.390625 760.855469 169.585938 760.097656 170.726562 759.25 C 171.867188 758.40625 172.941406 757.480469 173.949219 756.480469 C 179.273438 750.613281 174.175781 742.292969 171.019531 736.410156 C 169.140625 733.296875 167.003906 730.363281 164.613281 727.621094 C 163.523438 726.3125 162.652344 724.871094 161.996094 723.300781 C 161.335938 721.730469 160.925781 720.097656 160.757812 718.402344 C 160.035156 719.046875 159.273438 719.636719 158.46875 720.175781 C 157.667969 720.71875 156.832031 721.199219 155.964844 721.625 C 155.09375 722.050781 154.203125 722.414062 153.28125 722.71875 C 152.363281 723.019531 151.429688 723.261719 150.480469 723.433594 C 149.527344 723.609375 148.570312 723.71875 147.601562 723.765625 C 146.636719 723.808594 145.671875 723.785156 144.710938 723.699219 C 143.746094 723.609375 142.792969 723.457031 141.851562 723.238281 C 140.910156 723.019531 139.984375 722.738281 139.082031 722.394531 C 141.910156 729.617188 137.78125 736.050781 137.097656 743.308594 C 136.566406 750.007812 135.183594 759.808594 142.460938 763.097656 Z M 142.460938 763.097656 " fill-opacity="1" fill-rule="nonzero"/></g></g></g><g clip-path="url(#c7f938f40a)"><g clip-path="url(#8430f39b37)"><g clip-path="url(#c9fd7d195d)"><path fill="#cf2e2e" d="M 155.441406 688.871094 C 154.628906 688.34375 153.777344 687.890625 152.886719 687.515625 C 151.996094 687.136719 151.078125 686.84375 150.132812 686.632812 C 149.1875 686.421875 148.230469 686.296875 147.265625 686.253906 C 146.296875 686.214844 145.332031 686.261719 144.375 686.394531 C 143.417969 686.527344 142.476562 686.746094 141.558594 687.046875 C 140.636719 687.347656 139.75 687.726562 138.898438 688.1875 C 138.046875 688.648438 137.246094 689.179688 136.488281 689.785156 C 135.734375 690.390625 135.035156 691.058594 134.402344 691.789062 C 133.765625 692.515625 133.199219 693.296875 132.703125 694.128906 C 132.207031 694.960938 131.789062 695.828125 131.449219 696.734375 C 131.105469 697.640625 130.851562 698.570312 130.675781 699.523438 C 130.503906 700.476562 130.414062 701.433594 130.414062 702.402344 C 130.414062 703.371094 130.5 704.332031 130.667969 705.285156 C 130.839844 706.238281 131.09375 707.167969 131.433594 708.074219 C 131.773438 708.980469 132.1875 709.851562 132.683594 710.683594 C 133.175781 711.515625 133.742188 712.296875 134.375 713.027344 C 135.007812 713.757812 135.703125 714.429688 136.457031 715.035156 C 137.214844 715.640625 138.015625 716.175781 138.867188 716.636719 C 139.714844 717.101562 140.601562 717.484375 141.519531 717.785156 C 142.4375 718.089844 143.378906 718.308594 144.335938 718.445312 C 145.296875 718.582031 146.257812 718.628906 147.226562 718.589844 C 148.191406 718.554688 149.148438 718.429688 150.09375 718.222656 C 151.039062 718.011719 151.957031 717.71875 152.851562 717.347656 C 153.742188 716.972656 154.597656 716.519531 155.40625 715.992188 C 155.96875 715.625 156.5 715.226562 157.011719 714.789062 C 157.519531 714.355469 158.003906 713.894531 158.453125 713.398438 C 158.90625 712.90625 159.328125 712.386719 159.714844 711.839844 C 160.105469 711.296875 160.457031 710.730469 160.773438 710.140625 C 161.09375 709.550781 161.375 708.945312 161.617188 708.320312 C 161.859375 707.695312 162.0625 707.0625 162.226562 706.410156 C 162.390625 705.761719 162.515625 705.105469 162.597656 704.441406 C 162.683594 703.777344 162.722656 703.109375 162.726562 702.441406 C 162.726562 701.773438 162.6875 701.105469 162.605469 700.441406 C 162.523438 699.777344 162.398438 699.121094 162.238281 698.46875 C 162.074219 697.820312 161.871094 697.183594 161.628906 696.558594 C 161.390625 695.9375 161.109375 695.328125 160.792969 694.738281 C 160.476562 694.148438 160.125 693.582031 159.738281 693.035156 C 159.351562 692.488281 158.933594 691.96875 158.480469 691.472656 C 158.03125 690.980469 157.550781 690.515625 157.039062 690.078125 C 156.53125 689.644531 156 689.242188 155.441406 688.871094 Z M 155.441406 688.871094 " fill-opacity="1" fill-rule="nonzero"/></g></g></g></svg>