<svg xmlns="http://www.w3.org/2000/svg" xmlns:xlink="http://www.w3.org/1999/xlink" width="1080" zoomAndPan="magnify" viewBox="0 0 810 809.999993" height="1080" preserveAspectRatio="xMidYMid meet" version="1.0"><defs><clipPath id="b4e7b3cc72"><path d="M 0 0 L 539.25 0 L 539.25 539.25 L 0 539.25 Z M 0 0 " clip-rule="nonzero"/></clipPath><clipPath id="25b8399bc2"><path d="M 390.238281 523 L 508 523 L 508 572 L 390.238281 572 Z M 390.238281 523 " clip-rule="nonzero"/></clipPath><clipPath id="26fd1c275b"><path d="M 390.238281 571 L 402 571 L 402 593 L 390.238281 593 Z M 390.238281 571 " clip-rule="nonzero"/></clipPath></defs><rect x="-81" width="972" fill="#ffffff" y="-80.999999" height="971.999992" fill-opacity="1"/><rect x="-81" width="972" fill="#e2ffd6" y="-80.999999" height="971.999992" fill-opacity="1"/><path fill="#dfb28b" d="M 530.550781 22.789062 C 530.550781 24.960938 530.03125 27.136719 529.074219 29.050781 L 513.15625 60.882812 L 373.996094 60.882812 L 358.078125 29.050781 C 357.121094 27.136719 356.601562 24.960938 356.601562 22.789062 C 356.601562 14.960938 362.863281 8.699219 370.691406 8.699219 L 516.460938 8.699219 C 524.289062 8.699219 530.550781 14.960938 530.550781 22.789062 Z M 530.550781 22.789062 " fill-opacity="1" fill-rule="nonzero"/><path fill="#dfb28b" d="M 182.648438 22.789062 C 182.648438 24.960938 182.128906 27.136719 181.171875 29.050781 L 165.253906 60.882812 L 26.09375 60.882812 L 10.175781 29.050781 C 9.21875 27.136719 8.699219 24.960938 8.699219 22.789062 C 8.699219 14.960938 14.960938 8.699219 22.789062 8.699219 L 168.558594 8.699219 C 176.386719 8.699219 182.648438 14.960938 182.648438 22.789062 Z M 182.648438 22.789062 " fill-opacity="1" fill-rule="nonzero"/><path fill="#ccd1d9" d="M 26.09375 408.785156 L 17.394531 408.785156 C 12.613281 408.785156 8.699219 412.699219 8.699219 417.484375 L 8.699219 530.550781 L 147.859375 530.550781 L 147.859375 408.785156 Z M 26.09375 408.785156 " fill-opacity="1" fill-rule="nonzero"/><path fill="#ccd1d9" d="M 513.15625 408.785156 L 521.855469 408.785156 C 526.636719 408.785156 530.550781 412.699219 530.550781 417.484375 L 530.550781 530.550781 L 391.390625 530.550781 L 391.390625 408.785156 Z M 513.15625 408.785156 " fill-opacity="1" fill-rule="nonzero"/><path fill="#ecc19c" d="M 373.996094 60.882812 L 373.996094 275.453125 L 419.050781 307.980469 C 423.484375 311.199219 426.179688 316.417969 426.179688 321.898438 C 426.179688 331.464844 418.441406 339.207031 408.875 339.207031 L 405.742188 339.207031 C 402.089844 339.207031 398.523438 338.074219 395.566406 335.902344 L 391.390625 332.855469 L 391.390625 408.785156 L 513.15625 408.785156 L 513.15625 60.882812 Z M 373.996094 60.882812 " fill-opacity="1" fill-rule="nonzero"/><path fill="#ecc19c" d="M 26.09375 60.882812 L 26.09375 408.785156 L 147.859375 408.785156 L 147.859375 332.855469 L 143.683594 335.902344 C 140.726562 338.074219 137.160156 339.207031 133.507812 339.207031 L 130.375 339.207031 C 125.59375 339.207031 121.246094 337.292969 118.113281 334.160156 C 114.980469 331.03125 113.070312 326.679688 113.070312 321.898438 C 113.070312 316.417969 115.765625 311.199219 120.199219 307.980469 L 165.253906 275.453125 L 165.253906 60.882812 Z M 26.09375 60.882812 " fill-opacity="1" fill-rule="nonzero"/><path fill="#cf9e76" d="M 165.253906 113.070312 L 373.996094 113.070312 L 373.996094 147.859375 L 165.253906 147.859375 Z M 165.253906 113.070312 " fill-opacity="1" fill-rule="nonzero"/><path fill="#cf9e76" d="M 165.253906 147.859375 L 373.996094 147.859375 L 373.996094 191.347656 L 165.253906 191.347656 Z M 165.253906 147.859375 " fill-opacity="1" fill-rule="nonzero"/><path fill="#ff826e" d="M 426.179688 321.898438 C 426.179688 331.464844 418.441406 339.207031 408.875 339.207031 L 405.742188 339.207031 C 402.089844 339.207031 398.523438 338.074219 395.566406 335.902344 L 391.390625 332.855469 L 269.625 243.53125 L 147.859375 332.855469 L 143.683594 335.902344 C 140.726562 338.074219 137.160156 339.207031 133.507812 339.207031 L 130.375 339.207031 C 125.59375 339.207031 121.246094 337.292969 118.113281 334.160156 C 114.980469 331.03125 113.070312 326.679688 113.070312 321.898438 C 113.070312 316.417969 115.765625 311.199219 120.199219 307.980469 L 165.253906 275.453125 L 269.625 200.042969 L 373.996094 275.453125 L 419.050781 307.980469 C 423.484375 311.199219 426.179688 316.417969 426.179688 321.898438 Z M 426.179688 321.898438 " fill-opacity="1" fill-rule="nonzero"/><path fill="#e6e9ed" d="M 269.625 243.53125 L 147.859375 332.855469 L 147.859375 530.550781 L 391.390625 530.550781 L 391.390625 332.855469 Z M 269.625 243.53125 " fill-opacity="1" fill-rule="nonzero"/><path fill="#69d6f4" d="M 60.882812 491.414062 L 60.882812 530.550781 L 34.789062 530.550781 L 34.789062 491.414062 C 34.789062 484.195312 40.617188 478.367188 47.835938 478.367188 C 55.054688 478.367188 60.882812 484.195312 60.882812 491.414062 Z M 60.882812 491.414062 " fill-opacity="1" fill-rule="nonzero"/><path fill="#69d6f4" d="M 504.460938 491.414062 L 504.460938 530.550781 L 478.367188 530.550781 L 478.367188 491.414062 C 478.367188 484.195312 484.195312 478.367188 491.414062 478.367188 C 498.632812 478.367188 504.460938 484.195312 504.460938 491.414062 Z M 504.460938 491.414062 " fill-opacity="1" fill-rule="nonzero"/><path fill="#69d6f4" d="M 478.367188 130.464844 L 478.367188 208.742188 C 478.367188 213.527344 474.453125 217.441406 469.667969 217.441406 L 417.484375 217.441406 C 412.699219 217.441406 408.785156 213.527344 408.785156 208.742188 L 408.785156 130.464844 C 408.785156 120.894531 412.699219 112.199219 418.960938 105.847656 C 425.3125 99.585938 434.007812 95.671875 443.578125 95.671875 C 462.796875 95.671875 478.367188 111.242188 478.367188 130.464844 Z M 478.367188 130.464844 " fill-opacity="1" fill-rule="nonzero"/><path fill="#69d6f4" d="M 443.578125 491.414062 L 443.578125 530.550781 L 417.484375 530.550781 L 417.484375 491.414062 C 417.484375 484.195312 423.3125 478.367188 430.53125 478.367188 C 437.75 478.367188 443.578125 484.195312 443.578125 491.414062 Z M 443.578125 491.414062 " fill-opacity="1" fill-rule="nonzero"/><path fill="#69d6f4" d="M 356.601562 443.578125 L 356.601562 530.550781 L 321.808594 530.550781 L 321.808594 443.578125 C 321.808594 434.007812 329.636719 426.179688 339.207031 426.179688 C 343.988281 426.179688 348.339844 428.09375 351.46875 431.3125 C 354.6875 434.445312 356.601562 438.792969 356.601562 443.578125 Z M 356.601562 443.578125 " fill-opacity="1" fill-rule="nonzero"/><path fill="#69d6f4" d="M 313.113281 330.507812 C 313.113281 331.933594 313.042969 333.351562 312.902344 334.769531 C 312.765625 336.1875 312.554688 337.59375 312.277344 338.992188 C 312 340.390625 311.652344 341.769531 311.242188 343.132812 C 310.828125 344.496094 310.347656 345.835938 309.800781 347.148438 C 309.257812 348.464844 308.648438 349.753906 307.976562 351.007812 C 307.304688 352.265625 306.574219 353.484375 305.785156 354.667969 C 304.992188 355.851562 304.144531 356.996094 303.242188 358.097656 C 302.339844 359.199219 301.382812 360.25 300.375 361.257812 C 299.367188 362.265625 298.3125 363.222656 297.214844 364.125 C 296.113281 365.027344 294.96875 365.875 293.785156 366.667969 C 292.601562 367.457031 291.382812 368.191406 290.125 368.859375 C 288.867188 369.53125 287.582031 370.140625 286.265625 370.6875 C 284.953125 371.230469 283.613281 371.710938 282.25 372.125 C 280.886719 372.535156 279.507812 372.882812 278.109375 373.160156 C 276.710938 373.4375 275.304688 373.648438 273.886719 373.785156 C 272.46875 373.925781 271.050781 373.996094 269.625 373.996094 C 268.199219 373.996094 266.78125 373.925781 265.363281 373.785156 C 263.945312 373.648438 262.539062 373.4375 261.140625 373.160156 C 259.742188 372.882812 258.363281 372.535156 257 372.125 C 255.636719 371.710938 254.296875 371.230469 252.984375 370.6875 C 251.667969 370.140625 250.382812 369.53125 249.125 368.859375 C 247.867188 368.191406 246.648438 367.457031 245.464844 366.667969 C 244.28125 365.875 243.136719 365.027344 242.035156 364.125 C 240.933594 363.222656 239.882812 362.265625 238.875 361.257812 C 237.867188 360.25 236.910156 359.199219 236.007812 358.097656 C 235.105469 356.996094 234.257812 355.851562 233.464844 354.667969 C 232.675781 353.484375 231.945312 352.265625 231.273438 351.007812 C 230.601562 349.753906 229.992188 348.464844 229.449219 347.148438 C 228.902344 345.835938 228.421875 344.496094 228.007812 343.132812 C 227.597656 341.769531 227.25 340.390625 226.972656 338.992188 C 226.695312 337.59375 226.484375 336.1875 226.347656 334.769531 C 226.207031 333.351562 226.136719 331.933594 226.136719 330.507812 C 226.136719 329.082031 226.207031 327.664062 226.347656 326.246094 C 226.484375 324.828125 226.695312 323.421875 226.972656 322.023438 C 227.25 320.628906 227.597656 319.246094 228.007812 317.882812 C 228.421875 316.519531 228.902344 315.183594 229.449219 313.867188 C 229.992188 312.550781 230.601562 311.265625 231.273438 310.007812 C 231.945312 308.75 232.675781 307.53125 233.464844 306.347656 C 234.257812 305.164062 235.105469 304.019531 236.007812 302.917969 C 236.910156 301.820312 237.867188 300.765625 238.875 299.757812 C 239.882812 298.75 240.9375 297.796875 242.035156 296.890625 C 243.136719 295.988281 244.28125 295.140625 245.464844 294.347656 C 246.648438 293.558594 247.867188 292.828125 249.125 292.15625 C 250.382812 291.484375 251.667969 290.875 252.984375 290.332031 C 254.296875 289.785156 255.636719 289.304688 257 288.894531 C 258.363281 288.480469 259.742188 288.132812 261.140625 287.855469 C 262.539062 287.578125 263.945312 287.371094 265.363281 287.230469 C 266.78125 287.089844 268.199219 287.019531 269.625 287.019531 C 271.050781 287.019531 272.46875 287.089844 273.886719 287.230469 C 275.304688 287.371094 276.710938 287.578125 278.109375 287.855469 C 279.507812 288.132812 280.886719 288.480469 282.25 288.894531 C 283.613281 289.304688 284.953125 289.785156 286.265625 290.332031 C 287.582031 290.875 288.867188 291.484375 290.125 292.15625 C 291.382812 292.828125 292.601562 293.558594 293.785156 294.347656 C 294.96875 295.140625 296.113281 295.988281 297.214844 296.890625 C 298.3125 297.796875 299.367188 298.75 300.375 299.757812 C 301.382812 300.765625 302.339844 301.820312 303.242188 302.917969 C 304.144531 304.019531 304.992188 305.164062 305.785156 306.347656 C 306.574219 307.53125 307.304688 308.75 307.976562 310.007812 C 308.648438 311.265625 309.257812 312.550781 309.800781 313.867188 C 310.347656 315.183594 310.828125 316.519531 311.242188 317.882812 C 311.652344 319.246094 312 320.628906 312.277344 322.023438 C 312.554688 323.421875 312.765625 324.828125 312.902344 326.246094 C 313.042969 327.664062 313.113281 329.082031 313.113281 330.507812 Z M 313.113281 330.507812 " fill-opacity="1" fill-rule="nonzero"/><path fill="#69d6f4" d="M 287.019531 443.578125 L 287.019531 530.550781 L 252.230469 530.550781 L 252.230469 443.578125 C 252.230469 434.007812 260.058594 426.179688 269.625 426.179688 C 274.410156 426.179688 278.757812 428.09375 281.886719 431.3125 C 285.105469 434.445312 287.019531 438.792969 287.019531 443.578125 Z M 287.019531 443.578125 " fill-opacity="1" fill-rule="nonzero"/><path fill="#69d6f4" d="M 217.441406 443.578125 L 217.441406 530.550781 L 182.648438 530.550781 L 182.648438 443.578125 C 182.648438 434.007812 190.476562 426.179688 200.042969 426.179688 C 204.828125 426.179688 209.175781 428.09375 212.308594 431.3125 C 215.527344 434.445312 217.441406 438.792969 217.441406 443.578125 Z M 217.441406 443.578125 " fill-opacity="1" fill-rule="nonzero"/><path fill="#69d6f4" d="M 130.464844 130.464844 L 130.464844 208.742188 C 130.464844 213.527344 126.550781 217.441406 121.765625 217.441406 L 69.582031 217.441406 C 64.796875 217.441406 60.882812 213.527344 60.882812 208.742188 L 60.882812 130.464844 C 60.882812 111.242188 76.453125 95.671875 95.671875 95.671875 C 105.242188 95.671875 113.9375 99.585938 120.289062 105.847656 C 126.550781 112.199219 130.464844 120.894531 130.464844 130.464844 Z M 130.464844 130.464844 " fill-opacity="1" fill-rule="nonzero"/><path fill="#69d6f4" d="M 121.765625 491.414062 L 121.765625 530.550781 L 95.671875 530.550781 L 95.671875 491.414062 C 95.671875 484.195312 101.5 478.367188 108.71875 478.367188 C 115.9375 478.367188 121.765625 484.195312 121.765625 491.414062 Z M 121.765625 491.414062 " fill-opacity="1" fill-rule="nonzero"/><path fill="#000000" d="M 269.625 382.695312 C 298.40625 382.695312 321.808594 359.289062 321.808594 330.507812 C 321.808594 301.726562 298.40625 278.324219 269.625 278.324219 C 240.84375 278.324219 217.441406 301.726562 217.441406 330.507812 C 217.441406 359.289062 240.84375 382.695312 269.625 382.695312 Z M 269.625 295.71875 C 288.8125 295.71875 304.414062 311.320312 304.414062 330.507812 C 304.414062 349.695312 288.8125 365.296875 269.625 365.296875 C 250.4375 365.296875 234.835938 349.695312 234.835938 330.507812 C 234.835938 311.320312 250.4375 295.71875 269.625 295.71875 Z M 269.625 295.71875 " fill-opacity="1" fill-rule="nonzero"/><path fill="#000000" d="M 287.019531 339.207031 L 287.019531 321.808594 L 273.226562 321.808594 L 258.378906 306.964844 L 246.082031 319.261719 L 266.023438 339.207031 Z M 287.019531 339.207031 " fill-opacity="1" fill-rule="nonzero"/><g clip-path="url(#b4e7b3cc72)"><path fill="#000000" d="M 521.855469 400.089844 L 521.855469 62.9375 L 536.847656 32.957031 C 538.414062 29.804688 539.25 26.285156 539.25 22.769531 C 539.25 10.210938 529.03125 0 516.480469 0 L 370.671875 0 C 358.121094 0 347.902344 10.210938 347.902344 22.769531 C 347.902344 26.285156 348.738281 29.804688 350.304688 32.957031 L 365.296875 62.9375 L 365.296875 104.371094 L 173.953125 104.371094 L 173.953125 62.9375 L 188.945312 32.957031 C 190.511719 29.804688 191.347656 26.285156 191.347656 22.769531 C 191.347656 10.210938 181.128906 0 168.578125 0 L 22.769531 0 C 10.21875 0 0 10.210938 0 22.769531 C 0 26.285156 0.835938 29.804688 2.402344 32.957031 L 17.394531 62.9375 L 17.394531 400.089844 C 7.800781 400.089844 0 407.890625 0 417.484375 L 0 539.25 L 539.25 539.25 L 539.25 417.484375 C 539.25 407.890625 531.449219 400.089844 521.855469 400.089844 Z M 347.902344 521.855469 L 330.507812 521.855469 L 330.507812 443.578125 C 330.507812 438.777344 334.40625 434.878906 339.207031 434.878906 C 344.007812 434.878906 347.902344 438.777344 347.902344 443.578125 Z M 339.207031 417.484375 C 324.820312 417.484375 313.113281 429.191406 313.113281 443.578125 L 313.113281 521.855469 L 295.71875 521.855469 L 295.71875 443.578125 C 295.71875 429.191406 284.011719 417.484375 269.625 417.484375 C 255.238281 417.484375 243.53125 429.191406 243.53125 443.578125 L 243.53125 521.855469 L 226.136719 521.855469 L 226.136719 443.578125 C 226.136719 429.191406 214.429688 417.484375 200.042969 417.484375 C 185.660156 417.484375 173.953125 429.191406 173.953125 443.578125 L 173.953125 521.855469 L 156.554688 521.855469 L 156.554688 408.785156 L 382.695312 408.785156 L 382.695312 521.855469 L 365.296875 521.855469 L 365.296875 443.578125 C 365.296875 429.191406 353.589844 417.484375 339.207031 417.484375 Z M 278.324219 521.855469 L 260.925781 521.855469 L 260.925781 443.578125 C 260.925781 438.777344 264.824219 434.878906 269.625 434.878906 C 274.425781 434.878906 278.324219 438.777344 278.324219 443.578125 Z M 208.742188 521.855469 L 191.347656 521.855469 L 191.347656 443.578125 C 191.347656 438.777344 195.242188 434.878906 200.042969 434.878906 C 204.84375 434.878906 208.742188 438.777344 208.742188 443.578125 Z M 34.789062 69.582031 L 156.554688 69.582031 L 156.554688 243.53125 L 34.789062 243.53125 Z M 504.460938 69.582031 L 504.460938 243.53125 L 382.695312 243.53125 L 382.695312 69.582031 Z M 284.480469 200.042969 L 365.296875 200.042969 L 365.296875 258.414062 Z M 365.296875 182.648438 L 347.902344 182.648438 L 347.902344 156.554688 L 365.296875 156.554688 Z M 330.507812 182.648438 L 313.113281 182.648438 L 313.113281 156.554688 L 330.507812 156.554688 Z M 295.71875 182.648438 L 278.324219 182.648438 L 278.324219 156.554688 L 295.71875 156.554688 Z M 260.925781 182.648438 L 243.53125 182.648438 L 243.53125 156.554688 L 260.925781 156.554688 Z M 226.136719 182.648438 L 208.742188 182.648438 L 208.742188 156.554688 L 226.136719 156.554688 Z M 191.347656 182.648438 L 173.953125 182.648438 L 173.953125 156.554688 L 191.347656 156.554688 Z M 173.953125 200.042969 L 254.769531 200.042969 L 173.953125 258.414062 Z M 269.625 210.769531 L 413.925781 314.984375 C 416.152344 316.59375 417.484375 319.191406 417.484375 321.941406 C 417.484375 326.664062 413.640625 330.507812 408.917969 330.507812 L 405.742188 330.507812 C 403.90625 330.507812 402.160156 329.933594 400.679688 328.847656 L 269.625 232.746094 L 138.578125 328.847656 C 137.101562 329.933594 135.351562 330.507812 133.515625 330.507812 L 130.34375 330.507812 C 125.609375 330.507812 121.765625 326.664062 121.765625 321.941406 C 121.765625 319.203125 123.097656 316.601562 125.324219 314.992188 Z M 269.625 254.316406 L 382.695312 337.238281 L 382.695312 391.390625 L 156.554688 391.390625 L 156.554688 337.238281 Z M 400.089844 417.484375 L 521.855469 417.484375 L 521.855469 434.878906 L 400.089844 434.878906 Z M 400.089844 400.089844 L 400.089844 347.207031 C 401.933594 347.617188 403.8125 347.902344 405.734375 347.902344 L 408.90625 347.902344 C 423.234375 347.902344 434.878906 336.257812 434.878906 321.941406 C 434.878906 313.632812 430.851562 305.761719 424.121094 300.894531 L 382.695312 270.972656 L 382.695312 260.925781 L 504.460938 260.925781 L 504.460938 400.089844 Z M 370.671875 17.394531 L 516.480469 17.394531 C 519.445312 17.394531 521.855469 19.804688 521.855469 22.769531 C 521.855469 23.597656 521.664062 24.429688 521.289062 25.171875 L 507.78125 52.183594 L 379.371094 52.183594 L 365.863281 25.179688 C 365.488281 24.429688 365.296875 23.597656 365.296875 22.769531 C 365.296875 19.804688 367.707031 17.394531 370.671875 17.394531 Z M 365.296875 121.765625 L 365.296875 139.160156 L 173.953125 139.160156 L 173.953125 121.765625 Z M 22.769531 17.394531 L 168.578125 17.394531 C 171.542969 17.394531 173.953125 19.804688 173.953125 22.769531 C 173.953125 23.597656 173.761719 24.429688 173.386719 25.171875 L 159.878906 52.183594 L 31.46875 52.183594 L 17.960938 25.179688 C 17.585938 24.429688 17.394531 23.597656 17.394531 22.769531 C 17.394531 19.804688 19.804688 17.394531 22.769531 17.394531 Z M 34.789062 260.925781 L 156.554688 260.925781 L 156.554688 270.972656 L 115.128906 300.894531 C 108.398438 305.753906 104.371094 313.632812 104.371094 321.941406 C 104.371094 336.257812 116.015625 347.902344 130.332031 347.902344 L 133.507812 347.902344 C 135.4375 347.902344 137.308594 347.617188 139.152344 347.207031 L 139.152344 400.089844 L 34.789062 400.089844 Z M 139.160156 417.484375 L 139.160156 434.878906 L 17.394531 434.878906 L 17.394531 417.484375 Z M 17.394531 452.273438 L 139.160156 452.273438 L 139.160156 521.855469 L 130.464844 521.855469 L 130.464844 491.414062 C 130.464844 479.417969 120.714844 469.667969 108.71875 469.667969 C 96.726562 469.667969 86.976562 479.417969 86.976562 491.414062 L 86.976562 521.855469 L 69.582031 521.855469 L 69.582031 491.414062 C 69.582031 479.417969 59.832031 469.667969 47.835938 469.667969 C 35.84375 469.667969 26.09375 479.417969 26.09375 491.414062 L 26.09375 521.855469 L 17.394531 521.855469 Z M 113.070312 521.855469 L 104.371094 521.855469 L 104.371094 491.414062 C 104.371094 489.019531 106.328125 487.066406 108.71875 487.066406 C 111.113281 487.066406 113.070312 489.019531 113.070312 491.414062 Z M 52.183594 521.855469 L 43.488281 521.855469 L 43.488281 491.414062 C 43.488281 489.019531 45.445312 487.066406 47.835938 487.066406 C 50.230469 487.066406 52.183594 489.019531 52.183594 491.414062 Z M 434.878906 521.855469 L 426.179688 521.855469 L 426.179688 491.414062 C 426.179688 489.019531 428.136719 487.066406 430.53125 487.066406 C 432.921875 487.066406 434.878906 489.019531 434.878906 491.414062 Z M 495.761719 521.855469 L 487.066406 521.855469 L 487.066406 491.414062 C 487.066406 489.019531 489.019531 487.066406 491.414062 487.066406 C 493.804688 487.066406 495.761719 489.019531 495.761719 491.414062 Z M 513.15625 521.855469 L 513.15625 491.414062 C 513.15625 479.417969 503.40625 469.667969 491.414062 469.667969 C 479.417969 469.667969 469.667969 479.417969 469.667969 491.414062 L 469.667969 521.855469 L 452.273438 521.855469 L 452.273438 491.414062 C 452.273438 479.417969 442.523438 469.667969 430.53125 469.667969 C 418.535156 469.667969 408.785156 479.417969 408.785156 491.414062 L 408.785156 521.855469 L 400.089844 521.855469 L 400.089844 452.273438 L 521.855469 452.273438 L 521.855469 521.855469 Z M 513.15625 521.855469 " fill-opacity="1" fill-rule="nonzero"/></g><path fill="#000000" d="M 95.671875 86.976562 C 71.695312 86.976562 52.183594 106.484375 52.183594 130.464844 L 52.183594 208.742188 C 52.183594 218.335938 59.988281 226.136719 69.582031 226.136719 L 121.765625 226.136719 C 131.359375 226.136719 139.160156 218.335938 139.160156 208.742188 L 139.160156 130.464844 C 139.160156 106.484375 119.652344 86.976562 95.671875 86.976562 Z M 121.765625 130.464844 L 104.371094 130.464844 L 104.371094 105.972656 C 114.46875 109.570312 121.765625 119.140625 121.765625 130.464844 Z M 104.371094 147.859375 L 121.765625 147.859375 L 121.765625 165.253906 L 104.371094 165.253906 Z M 86.976562 165.253906 L 69.582031 165.253906 L 69.582031 147.859375 L 86.976562 147.859375 Z M 86.976562 105.972656 L 86.976562 130.464844 L 69.582031 130.464844 C 69.582031 119.140625 76.878906 109.570312 86.976562 105.972656 Z M 69.582031 182.648438 L 86.976562 182.648438 L 86.976562 208.742188 L 69.582031 208.742188 Z M 104.371094 208.742188 L 104.371094 182.648438 L 121.773438 182.648438 L 121.773438 208.742188 Z M 104.371094 208.742188 " fill-opacity="1" fill-rule="nonzero"/><path fill="#000000" d="M 417.484375 226.136719 L 469.667969 226.136719 C 479.261719 226.136719 487.066406 218.335938 487.066406 208.742188 L 487.066406 130.464844 C 487.066406 106.484375 467.554688 86.976562 443.578125 86.976562 C 419.597656 86.976562 400.089844 106.484375 400.089844 130.464844 L 400.089844 208.742188 C 400.089844 218.335938 407.890625 226.136719 417.484375 226.136719 Z M 417.484375 182.648438 L 434.878906 182.648438 L 434.878906 208.742188 L 417.484375 208.742188 Z M 434.878906 165.253906 L 417.484375 165.253906 L 417.484375 147.859375 L 434.878906 147.859375 Z M 452.273438 147.859375 L 469.667969 147.859375 L 469.667969 165.253906 L 452.273438 165.253906 Z M 452.273438 208.742188 L 452.273438 182.648438 L 469.667969 182.648438 L 469.667969 208.742188 Z M 469.667969 130.464844 L 452.273438 130.464844 L 452.273438 105.972656 C 462.371094 109.570312 469.667969 119.140625 469.667969 130.464844 Z M 434.878906 105.972656 L 434.878906 130.464844 L 417.484375 130.464844 C 417.484375 119.140625 424.78125 109.570312 434.878906 105.972656 Z M 434.878906 105.972656 " fill-opacity="1" fill-rule="nonzero"/><path fill="#f9ac7f" d="M 626.015625 427.152344 C 621.203125 449.421875 619.863281 466.570312 612.675781 486.9375 C 610.128906 486.453125 597.160156 487.785156 595.308594 476.761719 C 601.574219 436.808594 606.460938 422.652344 606.460938 422.652344 C 606.460938 422.652344 607.628906 412.324219 615.511719 408.753906 C 615.511719 408.753906 629.34375 413.542969 626.015625 427.152344 " fill-opacity="1" fill-rule="nonzero"/><path fill="#f7ac80" d="M 526.503906 457.679688 L 532.769531 453.394531 L 605.328125 472.125 C 617.246094 475.558594 614.417969 485.074219 614.417969 485.074219 C 612.394531 493.515625 606.59375 492.234375 606.59375 492.234375 C 606.59375 492.234375 573.332031 483.261719 526.503906 457.679688 " fill-opacity="1" fill-rule="nonzero"/><path fill="#f7ac80" d="M 528.863281 458.554688 L 520.816406 456.238281 C 509.097656 449.785156 492.589844 443.496094 513.765625 445.5 C 520.816406 446.167969 523.527344 445.066406 526.511719 447.402344 L 532.769531 453.394531 L 528.863281 458.554688 " fill-opacity="1" fill-rule="nonzero"/><path fill="#f7ac80" d="M 518.898438 438.074219 L 526.511719 447.402344 C 527.660156 449.09375 528.03125 450.34375 525.863281 451.394531 C 523.234375 452.660156 522.242188 450.515625 521.195312 448.675781 C 521.195312 448.675781 515.28125 440.5 518.898438 438.074219 " fill-opacity="1" fill-rule="nonzero"/><path fill="#20202d" d="M 614.535156 407.472656 C 614.535156 407.472656 606.320312 410.84375 602.683594 428.996094 L 595.300781 465.804688 C 595.300781 465.804688 552.082031 453.945312 534.972656 451.773438 C 534.972656 451.773438 530.242188 458.632812 530.609375 464.871094 L 614.707031 497.777344 L 632.164062 435.023438 C 632.164062 435.023438 637.671875 411.996094 614.535156 407.472656 " fill-opacity="1" fill-rule="nonzero"/><path fill="#ae6733" d="M 616.234375 342.230469 C 614.125 354.617188 611.105469 371.523438 614.015625 383.839844 C 619.113281 405.390625 627.691406 414.429688 646.28125 425.011719 C 659.203125 432.359375 665.335938 448.195312 666.6875 462.382812 C 667.984375 475.917969 662.980469 491.503906 681.210938 492.273438 C 693.652344 492.800781 706.539062 486.378906 712.714844 474.78125 C 721.113281 459.015625 713.226562 440.78125 708.714844 425.011719 C 705.046875 412.191406 712.917969 399.652344 706.675781 387.996094 C 699.65625 374.890625 692.132812 366.46875 691.402344 350.851562 C 690.894531 340 687.941406 330.324219 681.394531 321.535156 C 672.101562 309.050781 655.542969 305.621094 640.648438 307.226562 C 624.265625 308.988281 618.605469 328.324219 616.234375 342.230469 " fill-opacity="1" fill-rule="nonzero"/><path fill="#f59677" d="M 621.226562 801.960938 C 621.226562 801.960938 628.039062 806.847656 631.949219 801.027344 L 641.527344 785.347656 L 633.328125 785.347656 L 627.136719 794.511719 L 621.226562 801.960938 " fill-opacity="1" fill-rule="nonzero"/><path fill="#d82930" d="M 618.300781 808.546875 C 627.402344 810.066406 631.902344 806.261719 631.902344 806.261719 L 637.546875 799.671875 L 637.789062 806.480469 L 640.507812 806.511719 L 641.636719 791.96875 C 641.636719 791.96875 643.652344 785.234375 640.847656 782.445312 C 640.847656 782.445312 639.859375 785.023438 638.722656 787.257812 L 633.261719 796.765625 C 633.261719 796.765625 629.757812 803.277344 623.980469 802.507812 C 620.371094 802.078125 626.25 795.71875 626.25 795.71875 L 615.496094 806.53125 C 615.496094 806.53125 614.933594 808.066406 618.300781 808.546875 " fill-opacity="1" fill-rule="nonzero"/><path fill="#f7ac80" d="M 670.757812 802.625 L 683.742188 802.625 L 680.691406 786.332031 L 673.546875 786.332031 L 670.757812 802.625 " fill-opacity="1" fill-rule="nonzero"/><path fill="#d82930" d="M 673.546875 786.332031 L 672.089844 801.265625 C 672.089844 801.265625 676.277344 798.554688 682.105469 801.265625 L 680.691406 786.332031 L 685.6875 808.902344 L 668.003906 808.902344 L 673.546875 786.332031 " fill-opacity="1" fill-rule="nonzero"/><path fill="#1b243f" d="M 643.789062 787.589844 L 648.191406 693.367188 L 648.429688 663.820312 L 652.433594 552.667969 L 652.433594 498.347656 L 620.335938 498.347656 C 611.820312 529.773438 612.78125 533.078125 613.457031 579.3125 L 620.125 666.941406 L 630.140625 788.355469 C 630.140625 788.355469 634.828125 792.804688 643.789062 787.589844 " fill-opacity="1" fill-rule="nonzero"/><path fill="#13182b" d="M 652.433594 537.671875 L 650.261719 609.15625 L 641.722656 579.4375 C 640.933594 574.105469 634.511719 548.667969 631.007812 537.671875 L 652.433594 537.671875 " fill-opacity="1" fill-rule="nonzero"/><path fill="#1b243f" d="M 684.5625 787.597656 L 686.773438 687.898438 L 687.597656 664.351562 L 692.003906 576.898438 C 693.828125 546.269531 696.199219 540.570312 690.964844 520.742188 C 687.984375 510.539062 681.726562 498.347656 681.726562 498.347656 L 643.457031 498.347656 L 643.6875 557.839844 L 657.28125 664.40625 L 671.820312 787.992188 C 671.820312 787.992188 678.921875 791.453125 684.5625 787.597656 " fill-opacity="1" fill-rule="nonzero"/><path fill="#f7ac80" d="M 641.402344 403.363281 L 661.367188 403.363281 L 661.367188 380.5625 L 641.402344 380.5625 L 641.402344 403.363281 " fill-opacity="1" fill-rule="nonzero"/><path fill="#f5966a" d="M 641.402344 391.027344 L 641.402344 380.5625 L 661.367188 380.5625 L 661.367188 393.0625 C 654.3125 393.128906 647.523438 393.089844 641.402344 391.027344 " fill-opacity="1" fill-rule="nonzero"/><path fill="#f7ac80" d="M 616.996094 429.179688 C 616.996094 429.179688 615.464844 442.398438 621.757812 456.097656 L 627.808594 472.273438 L 619.800781 500.339844 C 619.800781 500.339844 631.964844 511.351562 681.761719 498.347656 L 671.332031 476.65625 L 684.925781 438.976562 L 684.910156 438.9375 C 687.429688 432.644531 690.761719 424.664062 691.785156 417.917969 C 693.007812 409.894531 687.128906 406.609375 678.550781 403.902344 L 660.738281 397.292969 L 643.730469 397.292969 L 639.941406 398.726562 L 632.40625 401.570312 L 622.511719 405.3125 C 622.511719 405.3125 619.855469 406.484375 618.164062 412.3125 C 618.164062 412.3125 616.835938 418.480469 616.996094 429.179688 " fill-opacity="1" fill-rule="nonzero"/><path fill="#f7ac80" d="M 667.8125 374.257812 C 667.023438 375.894531 665.960938 377.402344 664.503906 378.703125 C 658.039062 384.46875 649.542969 388.355469 640.789062 388.015625 C 618.339844 377.148438 627.441406 333.40625 627.441406 333.40625 C 631.683594 312.464844 649.683594 313.207031 649.683594 313.207031 C 663.300781 313.144531 675.464844 320.050781 677 334.476562 C 677.585938 340 676.304688 345.859375 675.820312 351.34375 C 675.457031 355.378906 674.804688 359.386719 673.371094 363.183594 C 671.902344 367.0625 669.59375 370.523438 667.8125 374.257812 " fill-opacity="1" fill-rule="nonzero"/><path fill="#f5937b" d="M 651.214844 361.886719 C 651.214844 363.5625 653.480469 364.921875 656.285156 364.921875 C 659.09375 364.921875 661.363281 363.5625 661.363281 361.886719 C 661.363281 360.207031 659.09375 358.847656 656.285156 358.847656 C 653.480469 358.847656 651.214844 360.207031 651.214844 361.886719 " fill-opacity="1" fill-rule="nonzero"/><path fill="#f5937b" d="M 628.695312 361.886719 C 628.695312 363.5625 630.964844 364.921875 633.773438 364.921875 C 636.578125 364.921875 638.851562 363.5625 638.851562 361.886719 C 638.851562 360.207031 636.578125 358.847656 633.773438 358.847656 C 630.964844 358.847656 628.695312 360.207031 628.695312 361.886719 " fill-opacity="1" fill-rule="nonzero"/><path fill="#421d16" d="M 633.722656 353.910156 C 633.722656 355.847656 634.804688 357.425781 636.136719 357.425781 C 637.472656 357.425781 638.554688 355.847656 638.554688 353.910156 C 638.554688 351.972656 637.472656 350.402344 636.136719 350.402344 C 634.804688 350.402344 633.722656 351.972656 633.722656 353.910156 " fill-opacity="1" fill-rule="nonzero"/><path fill="#421d16" d="M 655.125 353.910156 C 655.125 355.847656 654.046875 357.425781 652.710938 357.425781 C 651.378906 357.425781 650.296875 355.847656 650.296875 353.910156 C 650.296875 351.972656 651.378906 350.402344 652.710938 350.402344 C 654.046875 350.402344 655.125 351.972656 655.125 353.910156 " fill-opacity="1" fill-rule="nonzero"/><path fill="#ae6733" d="M 648.042969 348.367188 C 648.042969 348.367188 657.417969 345.789062 661.054688 349.222656 C 661.054688 349.222656 662.214844 342.453125 648.3125 345.226562 C 648.3125 345.226562 647.160156 345.347656 648.042969 348.367188 " fill-opacity="1" fill-rule="nonzero"/><path fill="#ae6733" d="M 641.066406 348.367188 C 641.066406 348.367188 631.691406 345.789062 628.054688 349.222656 C 628.054688 349.222656 626.890625 342.453125 640.792969 345.226562 C 640.792969 345.226562 641.945312 345.347656 641.066406 348.367188 " fill-opacity="1" fill-rule="nonzero"/><path fill="#f5966a" d="M 643.199219 358.167969 C 641.933594 359.398438 640.339844 361.421875 640.726562 363.308594 C 640.960938 364.464844 641.734375 365.371094 642.867188 365.695312 C 644.15625 366.0625 645.636719 365.582031 646.839844 365.144531 C 647.722656 364.828125 647.34375 363.421875 646.457031 363.742188 C 645.066406 364.238281 642.050781 365.125 642.136719 362.625 C 642.179688 361.363281 643.367188 360.03125 644.226562 359.195312 C 644.898438 358.539062 643.871094 357.511719 643.199219 358.167969 " fill-opacity="1" fill-rule="nonzero"/><path fill="#ae6733" d="M 670.554688 361.882812 C 670.554688 361.882812 672.589844 354.660156 665.804688 348.84375 L 663.9375 332.457031 C 663.9375 332.457031 653.621094 321.546875 629.960938 328.226562 C 629.960938 328.226562 625.613281 337.398438 625.632812 354.660156 C 625.632812 354.660156 618.324219 325.449219 630.871094 313.199219 C 630.871094 313.199219 638.546875 302.042969 661.363281 305.6875 C 661.363281 305.6875 697.152344 313.203125 685.328125 354.722656 C 685.328125 354.722656 681.503906 371.488281 666.375 376.648438 L 670.554688 361.882812 " fill-opacity="1" fill-rule="nonzero"/><path fill="#f7ac80" d="M 670.554688 357.597656 C 670.554688 357.597656 673.402344 350.839844 678.832031 353.820312 C 678.832031 353.820312 682.0625 355.726562 679.484375 361 C 679.484375 361 677.152344 367.351562 669.695312 364.917969 L 670.554688 357.597656 " fill-opacity="1" fill-rule="nonzero"/><path fill="#3bbec5" d="M 681.625 498.210938 L 672.992188 476.890625 L 687.128906 438.484375 C 662.464844 426.972656 668.554688 400.042969 668.554688 400.042969 L 664.851562 398.738281 C 664.851562 398.738281 665.03125 411.992188 646.515625 411.023438 C 646.515625 411.023438 636.375 410.738281 636.671875 399.964844 L 633.71875 401.078125 C 633.066406 412.421875 623.945312 420.832031 623.945312 420.832031 L 616.023438 428.941406 C 616.023438 428.941406 614.328125 440.261719 618.382812 453.042969 L 625.511719 472.613281 L 619.667969 500.203125 L 609.054688 526.722656 C 609.054688 526.722656 657.101562 538.476562 694.152344 523.03125 L 681.625 498.210938 " fill-opacity="1" fill-rule="nonzero"/><path fill="#35abb2" d="M 665.226562 488.453125 C 663.160156 482.34375 661.402344 477.816406 657.691406 472.566406 C 655.964844 470.132812 653.105469 468.445312 650.652344 466.761719 C 647.636719 464.695312 648.453125 465.671875 643.457031 462.679688 C 653.8125 462.742188 656.394531 464.15625 665.042969 462.636719 C 670.550781 461.664062 676.765625 454.046875 676.160156 446.1875 C 675.742188 440.742188 673.265625 434.648438 675.085938 429.292969 C 681.332031 436.261719 687.128906 438.484375 687.128906 438.484375 L 672.992188 476.890625 L 681.625 498.210938 L 694.152344 523.03125 C 694.152344 523.03125 688.402344 525.988281 672.914062 528.9375 L 665.226562 488.453125 " fill-opacity="1" fill-rule="nonzero"/><path fill="#ffffff" d="M 637.820312 368.027344 C 637.96875 371.871094 641.105469 374.953125 644.984375 374.953125 C 648.863281 374.953125 652.003906 371.871094 652.15625 368.027344 L 637.820312 368.027344 " fill-opacity="1" fill-rule="nonzero"/><path fill="#ffffff" d="M 673.4375 364.917969 C 673.4375 365.910156 672.632812 366.714844 671.644531 366.714844 C 670.652344 366.714844 669.851562 365.910156 669.851562 364.917969 C 669.851562 363.925781 670.652344 363.125 671.644531 363.125 C 672.632812 363.125 673.4375 363.925781 673.4375 364.917969 " fill-opacity="1" fill-rule="nonzero"/><path fill="#252635" d="M 643.378906 422.789062 L 634.195312 400.835938 L 613.875 408.074219 L 612.328125 482.433594 L 592.519531 756.425781 C 650.425781 779.589844 725.503906 755.472656 725.503906 755.472656 L 690.097656 471.160156 L 691.964844 407.472656 L 664.777344 398.738281 L 643.378906 422.789062 " fill-opacity="1" fill-rule="nonzero"/><path fill="#d5283f" d="M 636.980469 460.394531 L 614.5625 407.832031 L 634.195312 400.835938 L 651.992188 443.257812 L 636.980469 460.394531 " fill-opacity="1" fill-rule="nonzero"/><path fill="#ed3947" d="M 636.980469 460.394531 L 685.242188 405.3125 L 664.777344 398.738281 L 628.0625 439.3125 L 636.980469 460.394531 " fill-opacity="1" fill-rule="nonzero"/><path fill="#f9ac7f" d="M 680.480469 427.152344 C 685.296875 449.421875 686.636719 466.570312 693.824219 486.9375 C 696.371094 486.453125 709.339844 487.785156 711.195312 476.761719 C 704.925781 436.808594 700.035156 422.652344 700.035156 422.652344 C 700.035156 422.652344 698.867188 412.324219 690.988281 408.753906 C 690.988281 408.753906 677.148438 413.542969 680.480469 427.152344 " fill-opacity="1" fill-rule="nonzero"/><path fill="#f7ac80" d="M 779.996094 457.675781 L 773.730469 453.394531 L 701.167969 472.125 C 689.253906 475.554688 692.082031 485.074219 692.082031 485.074219 C 694.105469 493.515625 699.90625 492.230469 699.90625 492.230469 C 699.90625 492.230469 733.164062 483.257812 779.996094 457.675781 " fill-opacity="1" fill-rule="nonzero"/><path fill="#f7ac80" d="M 777.636719 458.550781 L 785.683594 456.238281 C 797.40625 449.785156 813.910156 443.496094 792.734375 445.5 C 785.679688 446.167969 782.972656 445.066406 779.984375 447.40625 L 773.730469 453.394531 L 777.636719 458.550781 " fill-opacity="1" fill-rule="nonzero"/><path fill="#f7ac80" d="M 787.601562 438.074219 L 779.988281 447.402344 C 778.839844 449.089844 778.464844 450.34375 780.632812 451.394531 C 783.265625 452.65625 784.257812 450.515625 785.308594 448.675781 C 785.308594 448.675781 791.214844 440.5 787.601562 438.074219 " fill-opacity="1" fill-rule="nonzero"/><path fill="#252635" d="M 691.964844 407.472656 C 691.964844 407.472656 700.175781 410.84375 703.816406 428.996094 L 711.199219 465.804688 C 711.199219 465.804688 754.414062 453.945312 771.523438 451.773438 C 771.523438 451.773438 776.257812 458.632812 775.890625 464.871094 L 691.792969 497.777344 L 674.332031 435.019531 C 674.332031 435.019531 668.824219 411.996094 691.964844 407.472656 " fill-opacity="1" fill-rule="nonzero"/><path fill="#d47f40" d="M 713.617188 323.164062 L 712.53125 323.164062 L 712.53125 300.503906 L 713.617188 300.503906 L 713.617188 323.164062 " fill-opacity="1" fill-rule="nonzero"/><path fill="#d6ae41" d="M 710.664062 326.28125 L 708.589844 345.257812 C 708.589844 345.257812 712.292969 347.734375 717.410156 345.257812 L 715.460938 326.28125 L 710.664062 326.28125 " fill-opacity="1" fill-rule="nonzero"/><path fill="#d47f40" d="M 715.460938 326.28125 L 714.886719 322.863281 L 713.0625 321.6875 L 711.238281 322.863281 L 710.664062 326.28125 C 710.664062 326.28125 712.292969 327.402344 715.460938 326.28125 " fill-opacity="1" fill-rule="nonzero"/><path fill="#d47f40" d="M 710.972656 330.191406 C 710.972656 330.191406 711.117188 331.117188 711.148438 332.492188 C 711.1875 333.863281 711.113281 335.679688 710.933594 337.484375 C 710.734375 339.292969 710.425781 341.082031 710.09375 342.414062 C 709.78125 343.75 709.445312 344.628906 709.445312 344.628906 C 709.445312 344.628906 709.296875 343.703125 709.265625 342.328125 C 709.222656 340.957031 709.296875 339.136719 709.480469 337.332031 C 709.679688 335.527344 709.992188 333.738281 710.320312 332.402344 C 710.632812 331.066406 710.972656 330.191406 710.972656 330.191406 " fill-opacity="1" fill-rule="nonzero"/><path fill="#d47f40" d="M 715.050781 330.539062 C 715.050781 330.539062 715.386719 331.414062 715.707031 332.75 C 716.03125 334.082031 716.339844 335.875 716.539062 337.675781 C 716.726562 339.480469 716.796875 341.300781 716.757812 342.671875 C 716.726562 344.046875 716.582031 344.972656 716.582031 344.972656 C 716.582031 344.972656 716.238281 344.097656 715.925781 342.761719 C 715.597656 341.429688 715.289062 339.636719 715.09375 337.832031 C 714.910156 336.023438 714.835938 334.210938 714.878906 332.835938 C 714.90625 331.464844 715.050781 330.539062 715.050781 330.539062 " fill-opacity="1" fill-rule="nonzero"/><path fill="#d47f40" d="M 711.738281 330.78125 C 711.738281 330.78125 711.9375 331.699219 712.035156 333.0625 C 712.144531 334.421875 712.175781 336.230469 712.082031 338.039062 C 711.980469 339.84375 711.769531 341.644531 711.511719 342.984375 C 711.265625 344.332031 710.972656 345.21875 710.972656 345.21875 C 710.972656 345.21875 710.777344 344.304688 710.675781 342.945312 C 710.5625 341.582031 710.535156 339.769531 710.628906 337.960938 C 710.730469 336.160156 710.949219 334.359375 711.203125 333.015625 C 711.449219 331.671875 711.738281 330.78125 711.738281 330.78125 " fill-opacity="1" fill-rule="nonzero"/><path fill="#d47f40" d="M 713.054688 330.78125 C 713.054688 330.78125 713.277344 331.691406 713.410156 333.050781 C 713.5625 334.410156 713.632812 336.214844 713.597656 338.023438 C 713.539062 339.824219 713.371094 341.625 713.148438 342.976562 C 712.941406 344.324219 712.671875 345.21875 712.671875 345.21875 C 712.671875 345.21875 712.453125 344.3125 712.3125 342.953125 C 712.167969 341.597656 712.09375 339.789062 712.140625 337.984375 C 712.191406 336.175781 712.359375 334.378906 712.582031 333.027344 C 712.785156 331.679688 713.054688 330.78125 713.054688 330.78125 " fill-opacity="1" fill-rule="nonzero"/><path fill="#d47f40" d="M 714.179688 330.78125 C 714.179688 330.78125 714.449219 331.660156 714.660156 332.984375 C 714.882812 334.3125 715.054688 336.082031 715.113281 337.855469 C 715.160156 339.628906 715.089844 341.40625 714.945312 342.742188 C 714.8125 344.074219 714.59375 344.96875 714.59375 344.96875 C 714.59375 344.96875 714.320312 344.089844 714.109375 342.765625 C 713.882812 341.441406 713.71875 339.667969 713.660156 337.894531 C 713.613281 336.121094 713.683594 334.347656 713.828125 333.007812 C 713.964844 331.679688 714.179688 330.78125 714.179688 330.78125 " fill-opacity="1" fill-rule="nonzero"/><path fill="#252635" d="M 714.265625 300.628906 L 649 282.289062 L 587.460938 305.273438 L 649.386719 326.210938 L 714.265625 300.628906 " fill-opacity="1" fill-rule="nonzero"/><path fill="#1d1e29" d="M 641.664062 338.699219 C 633.449219 332.136719 618.140625 332.167969 618.140625 332.167969 L 620.847656 304.25 C 651.792969 291.933594 685.597656 304.25 685.597656 304.25 L 687.6875 332.085938 C 687.6875 332.085938 658.1875 329.3125 641.664062 338.699219 " fill-opacity="1" fill-rule="nonzero"/><path fill="#15141b" d="M 622.683594 326.921875 C 625.378906 327.1875 628.113281 326.972656 630.804688 327.3125 C 635.578125 327.917969 639.460938 329.976562 643.105469 332.929688 C 643.347656 333.125 643.742188 333.25 644.023438 333.042969 C 646.929688 330.953125 650.035156 329.019531 653.640625 328.308594 C 656.503906 327.738281 659.328125 327.710938 662.210938 327.429688 C 665.453125 327.113281 668.25 325.945312 668.695312 322.460938 C 669.367188 317.191406 668.851562 309.269531 666.027344 304.558594 C 664.691406 302.332031 662.84375 300.679688 660.8125 299.210938 C 675.265625 300.496094 685.59375 304.25 685.59375 304.25 L 687.683594 332.089844 C 687.683594 332.089844 658.183594 329.316406 641.660156 338.703125 C 633.445312 332.140625 618.140625 332.167969 618.140625 332.167969 L 618.773438 325.652344 C 619.882812 326.304688 621.148438 326.769531 622.683594 326.921875 " fill-opacity="1" fill-rule="nonzero"/><path fill="#1b1b25" d="M 671.484375 522.6875 C 669.25 495.167969 665.351562 488.371094 649.113281 474.671875 C 660.382812 474.652344 672.632812 474.277344 677.625 462.320312 C 681.238281 453.65625 681.742188 443.769531 683.316406 434.59375 C 684.960938 425.023438 686.503906 415.371094 686.527344 405.644531 L 691.964844 407.394531 L 690.097656 471.082031 L 725.503906 755.390625 C 725.503906 755.390625 712.988281 759.410156 694.242188 762.589844 L 671.484375 522.6875 " fill-opacity="1" fill-rule="nonzero"/><path fill="#f9ac7f" d="M 559.867188 480.351562 C 554.773438 434.917969 540.304688 412.324219 540.304688 412.324219 L 521.382812 416.503906 C 521.382812 437.109375 525.945312 448.992188 538.128906 482.671875 C 540.664062 482.148438 558.164062 491.398438 559.867188 480.351562 " fill-opacity="1" fill-rule="nonzero"/><path fill="#55b1ad" d="M 532.371094 384.660156 C 532.371094 384.660156 540.625 390.207031 542.203125 398.515625 L 559.628906 454.558594 C 559.628906 454.558594 548.4375 467.789062 526.960938 465.550781 L 510.847656 413.949219 C 510.847656 413.949219 513.707031 380.625 532.371094 384.660156 " fill-opacity="1" fill-rule="nonzero"/><path fill="#f7ac80" d="M 528.207031 588.4375 L 527.785156 592.871094 C 527.785156 592.871094 524.808594 592.691406 524.894531 587.527344 C 524.714844 571.671875 523.824219 568.894531 525.753906 565.632812 L 530.878906 558.648438 L 536.5 561.863281 L 535.242188 570.152344 L 529.605469 594.015625 C 529.605469 594.015625 527.117188 592.75 528.207031 588.4375 " fill-opacity="1" fill-rule="nonzero"/><path fill="#f7ac80" d="M 517.496094 574.390625 L 525.753906 565.632812 C 527.28125 564.277344 528.476562 563.746094 529.789062 565.765625 C 531.382812 568.207031 529.390625 569.46875 527.695312 570.75 C 527.695312 570.75 520.363281 577.667969 517.496094 574.390625 " fill-opacity="1" fill-rule="nonzero"/><path fill="#f7ac80" d="M 535.929688 564.320312 L 530.878906 558.648438 L 538.128906 482.671875 C 540 470.398438 551.773438 473.5 551.773438 473.5 C 560.390625 474.425781 559.867188 480.351562 559.867188 480.351562 C 559.867188 480.351562 556.421875 521.492188 535.929688 564.320312 " fill-opacity="1" fill-rule="nonzero"/><path fill="#20202d" d="M 509.652344 415.398438 L 530.914062 480.570312 L 527.542969 556.640625 C 528.753906 565.871094 537.730469 566.59375 537.730469 566.59375 C 552.535156 536.207031 564.183594 477.027344 564.183594 477.027344 C 562.730469 451.605469 546.90625 403.363281 546.90625 403.363281 C 544.183594 393.207031 538.003906 386.570312 538.003906 386.570312 L 530 383.660156 C 530 383.660156 509.234375 382.53125 509.652344 415.398438 " fill-opacity="1" fill-rule="nonzero"/><path fill="#96d7f3" d="M 472.871094 381.8125 L 502.78125 381.726562 L 497.984375 363.628906 L 472.871094 363.628906 L 472.871094 381.8125 " fill-opacity="1" fill-rule="nonzero"/><path fill="#080709" d="M 503.296875 792.144531 L 513.742188 792.089844 L 513.652344 775.140625 L 503.214844 775.195312 L 503.296875 792.144531 " fill-opacity="1" fill-rule="nonzero"/><path fill="#563023" d="M 525.015625 808.488281 L 513.785156 806.273438 L 500.765625 802.949219 L 503.148438 788.835938 L 513.570312 788.777344 L 519.285156 793.230469 L 545.882812 805.300781 C 545.882812 805.300781 545.636719 810.359375 525.015625 808.488281 " fill-opacity="1" fill-rule="nonzero"/><path fill="#080709" d="M 463.488281 792.976562 L 451.054688 793.011719 L 451.015625 779.625 L 463.449219 779.589844 L 463.488281 792.976562 " fill-opacity="1" fill-rule="nonzero"/><path fill="#563023" d="M 450.304688 791.867188 L 449.347656 795.050781 C 445.957031 803.058594 445.570312 806.320312 445.570312 806.320312 L 445.578125 808.902344 L 468.605469 808.835938 L 468.59375 806.253906 C 468.59375 806.253906 468.585938 804.148438 465.121094 795.007812 L 464.5 791.832031 C 464.5 791.832031 464.273438 791.21875 463.117188 791.222656 L 462.148438 790.316406 L 452.929688 790.339844 L 451.683594 791.421875 C 451.683594 791.421875 450.492188 791.246094 450.304688 791.867188 " fill-opacity="1" fill-rule="nonzero"/><path fill="#4a2216" d="M 468.566406 805.746094 C 468.585938 806.070312 468.59375 806.253906 468.59375 806.253906 L 468.605469 808.835938 L 445.578125 808.902344 L 445.570312 806.320312 C 445.570312 806.320312 445.570312 806.132812 445.578125 805.816406 L 468.566406 805.746094 " fill-opacity="1" fill-rule="nonzero"/><path fill="#4a2216" d="M 464.742188 800.917969 C 464.554688 800.648438 464.363281 800.386719 464.171875 800.136719 L 464.152344 800.125 C 463.65625 799.660156 463.046875 799.359375 462.363281 799.214844 C 462.195312 799.179688 462.019531 799.164062 461.84375 799.148438 L 461.398438 799.105469 L 460.476562 799.039062 C 459.25 798.960938 458.023438 798.933594 456.796875 798.949219 C 455.566406 798.96875 454.339844 799.019531 453.117188 799.140625 L 452.65625 799.179688 C 452.601562 799.191406 452.476562 799.199219 452.382812 799.21875 L 452.140625 799.273438 C 451.820312 799.355469 451.5 799.449219 451.203125 799.597656 C 450.621094 799.863281 449.988281 800.3125 449.847656 800.953125 C 450.253906 800.46875 450.835938 800.316406 451.398438 800.226562 C 451.683594 800.1875 451.972656 800.152344 452.257812 800.15625 L 452.46875 800.160156 C 452.53125 800.160156 452.5625 800.171875 452.660156 800.179688 L 453.121094 800.222656 C 454.34375 800.339844 455.570312 800.378906 456.800781 800.394531 C 458.027344 800.402344 459.253906 800.359375 460.480469 800.28125 L 461.398438 800.207031 L 462.273438 800.128906 C 462.808594 800.113281 463.394531 800.222656 463.917969 800.4375 L 463.910156 800.425781 C 464.175781 800.59375 464.457031 800.761719 464.742188 800.917969 " fill-opacity="1" fill-rule="nonzero"/><path fill="#243c4b" d="M 478.875 521.882812 L 489.882812 646.460938 L 493.097656 691.730469 L 499.640625 790.535156 C 499.640625 790.535156 513.378906 793.175781 518.640625 788.082031 L 525.121094 639.625 L 530.292969 521.710938 L 478.875 521.882812 " fill-opacity="1" fill-rule="nonzero"/><path fill="#979696" d="M 483.75 605.457031 L 474.679688 544.835938 L 480.902344 544.816406 L 485.417969 595.90625 C 484.578125 599.621094 483.996094 602.898438 483.75 605.457031 " fill-opacity="1" fill-rule="nonzero"/><path fill="#16242d" d="M 485.417969 595.90625 L 480.902344 544.816406 L 505.335938 544.75 C 498.792969 551.824219 489.328125 578.578125 485.417969 595.90625 " fill-opacity="1" fill-rule="nonzero"/><path fill="#243c4b" d="M 445.640625 521.953125 L 450.878906 643.273438 L 447.40625 696.363281 L 447.953125 789.339844 C 447.953125 789.339844 458.160156 794.601562 465.617188 790.050781 L 482.722656 639.78125 L 492.960938 521.816406 L 445.640625 521.953125 " fill-opacity="1" fill-rule="nonzero"/><path fill="#f7ac80" d="M 476.300781 378.503906 L 497.910156 378.503906 L 497.910156 348.453125 L 476.300781 348.453125 L 476.300781 378.503906 " fill-opacity="1" fill-rule="nonzero"/><path fill="#f5966a" d="M 476.300781 362.414062 L 476.300781 348.453125 L 497.910156 348.453125 L 497.910156 365.976562 C 489.519531 367.128906 481.933594 366.300781 476.300781 362.414062 " fill-opacity="1" fill-rule="nonzero"/><path fill="#f7ac80" d="M 444.0625 389.527344 C 449.351562 381.332031 457.09375 377.238281 457.09375 377.238281 L 477.59375 371.71875 L 496.609375 371.71875 L 519.777344 379.988281 C 519.777344 379.988281 524.851562 381.332031 530.136719 389.527344 L 444.0625 389.527344 " fill-opacity="1" fill-rule="nonzero"/><path fill="#6bc5bb" d="M 472.636719 371.71875 L 445.347656 379.898438 C 445.347656 379.898438 441.226562 390.714844 441.226562 405.445312 L 448.1875 455.984375 L 445.640625 521.953125 C 445.640625 521.953125 490.003906 521.84375 530.292969 521.710938 L 531.328125 453.226562 L 534.464844 418.390625 L 536.5 392.570312 C 536.5 385.296875 524.683594 381.8125 524.683594 381.8125 L 507.804688 375.628906 L 499.332031 387.660156 L 472.636719 371.71875 " fill-opacity="1" fill-rule="nonzero"/><path fill="#784e28" d="M 519.082031 290 C 519.117188 300.378906 519.226562 301.457031 516.222656 325.140625 L 508.730469 290 L 519.082031 290 " fill-opacity="1" fill-rule="nonzero"/><path fill="#f7ac80" d="M 496.894531 358.644531 C 493.371094 357.714844 487.390625 355.460938 487.390625 355.460938 C 476.300781 351.050781 469.3125 351.378906 467.339844 343.605469 C 467.273438 343.367188 462.449219 303.902344 462.449219 303.902344 C 463.203125 283.808594 484.496094 282.371094 487.699219 282.261719 C 490.890625 281.949219 511.371094 279.015625 514.742188 298.839844 C 514.742188 298.839844 520.261719 319.128906 512.234375 346.03125 C 508.269531 355.992188 503.261719 358.230469 503.261719 358.230469 C 503.261719 358.230469 500.605469 359.773438 496.894531 358.644531 " fill-opacity="1" fill-rule="nonzero"/><path fill="#59381c" d="M 464.8125 323.164062 C 467.683594 324.050781 467.722656 330.085938 467.722656 330.085938 L 471.667969 330.054688 C 470.625 319.078125 470.636719 308.597656 470.636719 308.597656 C 470.636719 308.597656 474.636719 297.054688 479.261719 293.804688 L 462.449219 283.230469 C 462.449219 283.230469 457.785156 287.574219 453.894531 297.625 C 453.894531 297.625 457.304688 323.636719 467.1875 342.460938 L 464.8125 323.164062 " fill-opacity="1" fill-rule="nonzero"/><path fill="#f7ac80" d="M 469.164062 333.789062 C 468.640625 334.453125 467.769531 334.859375 466.398438 334.835938 C 463.433594 334.792969 461.039062 331.914062 459.917969 329.390625 C 457.488281 323.863281 460.253906 322.230469 460.253906 322.230469 C 466.332031 318.425781 468.859375 326.460938 468.875 326.527344 C 469.539062 328.640625 470.515625 332.070312 469.164062 333.789062 " fill-opacity="1" fill-rule="nonzero"/><path fill="#664121" d="M 519.082031 290.003906 C 514.75 292.839844 479.261719 293.804688 479.261719 293.804688 L 462.449219 283.234375 C 462.449219 283.234375 470.820312 268.105469 499.941406 273.207031 C 499.941406 273.207031 512.019531 276.671875 519.175781 275.941406 C 519.175781 275.941406 515.429688 282.28125 512.25 284.125 C 512.25 284.125 512.808594 286.402344 519.082031 290.003906 " fill-opacity="1" fill-rule="nonzero"/><path fill="#421d16" d="M 507.898438 319.855469 C 507.898438 321.945312 506.730469 323.636719 505.292969 323.636719 C 503.855469 323.636719 502.691406 321.945312 502.691406 319.855469 C 502.691406 317.757812 503.855469 316.066406 505.292969 316.066406 C 506.730469 316.066406 507.898438 317.757812 507.898438 319.855469 " fill-opacity="1" fill-rule="nonzero"/><path fill="#421d16" d="M 483.667969 319.855469 C 483.667969 321.945312 484.835938 323.636719 486.273438 323.636719 C 487.707031 323.636719 488.875 321.945312 488.875 319.855469 C 488.875 317.757812 487.707031 316.066406 486.273438 316.066406 C 484.835938 316.066406 483.667969 317.757812 483.667969 319.855469 " fill-opacity="1" fill-rule="nonzero"/><path fill="#f5966a" d="M 494.183594 330.878906 C 496.453125 331.597656 499.804688 332.65625 501.480469 330.246094 C 503.121094 327.890625 501.277344 324.808594 499.492188 323.125 C 498.808594 322.480469 497.777344 323.507812 498.460938 324.15625 C 499.703125 325.328125 501.578125 327.847656 500.199219 329.53125 C 498.910156 331.105469 496.125 329.964844 494.570312 329.476562 C 493.671875 329.191406 493.292969 330.597656 494.183594 330.878906 " fill-opacity="1" fill-rule="nonzero"/><path fill="#59381c" d="M 511.164062 310.4375 L 510.105469 313.640625 C 510.105469 313.640625 505.933594 311.617188 499.972656 313.640625 L 498.980469 310.4375 C 498.980469 310.4375 504.273438 308.542969 511.164062 310.4375 " fill-opacity="1" fill-rule="nonzero"/><path fill="#59381c" d="M 479.261719 310.4375 L 480.320312 313.640625 C 480.320312 313.640625 484.492188 311.617188 490.457031 313.640625 L 491.445312 310.4375 C 491.445312 310.4375 486.152344 308.542969 479.261719 310.4375 " fill-opacity="1" fill-rule="nonzero"/><path fill="#ffffff" d="M 504.574219 335.617188 C 504.578125 335.699219 504.597656 335.777344 504.597656 335.859375 C 504.597656 340.023438 501.230469 343.394531 497.078125 343.394531 C 492.917969 343.394531 489.550781 340.023438 489.550781 335.859375 C 489.550781 335.777344 489.570312 335.699219 489.574219 335.617188 L 504.574219 335.617188 " fill-opacity="1" fill-rule="nonzero"/><path fill="#96d7f3" d="M 497.421875 386.570312 L 495.296875 376.113281 L 490.398438 382.324219 Z M 497.421875 386.570312 " fill-opacity="1" fill-rule="nonzero"/><path fill="#43171e" d="M 445.800781 521.886719 L 530.292969 521.886719 L 530.292969 513.714844 L 445.800781 513.714844 L 445.800781 521.886719 " fill-opacity="1" fill-rule="nonzero"/><path fill="#bbbaba" d="M 484.59375 522.070312 L 483.867188 522.070312 C 483.867188 522.828125 484.175781 523.523438 484.671875 524.023438 C 485.167969 524.523438 485.863281 524.832031 486.625 524.832031 L 498.171875 524.832031 C 499.695312 524.832031 500.929688 523.59375 500.929688 522.070312 L 500.929688 513.535156 C 500.929688 512.773438 500.621094 512.078125 500.125 511.578125 C 499.625 511.078125 498.933594 510.769531 498.171875 510.769531 L 486.625 510.769531 C 485.863281 510.769531 485.167969 511.078125 484.671875 511.578125 C 484.175781 512.078125 483.867188 512.773438 483.867188 513.535156 L 483.867188 522.070312 L 485.324219 522.070312 L 485.324219 513.535156 C 485.324219 513.167969 485.46875 512.847656 485.703125 512.609375 C 485.941406 512.371094 486.261719 512.230469 486.625 512.230469 L 498.171875 512.230469 C 498.535156 512.230469 498.855469 512.371094 499.09375 512.609375 C 499.328125 512.851562 499.476562 513.171875 499.476562 513.535156 L 499.476562 522.070312 C 499.476562 522.433594 499.328125 522.753906 499.09375 522.992188 C 498.855469 523.230469 498.535156 523.371094 498.171875 523.371094 L 486.625 523.371094 C 485.902344 523.371094 485.324219 522.792969 485.324219 522.070312 L 484.59375 522.070312 " fill-opacity="1" fill-rule="nonzero"/><path fill="#bbbaba" d="M 492.398438 518.53125 L 500.207031 518.53125 L 500.207031 517.070312 L 492.398438 517.070312 Z M 492.398438 518.53125 " fill-opacity="1" fill-rule="nonzero"/><path fill="#252635" d="M 501.195312 399.046875 L 511.242188 376.828125 L 538.003906 386.570312 L 531.289062 455.578125 L 546.90625 761.703125 C 499.433594 779.75 418.265625 760.75 418.265625 760.75 L 446.054688 447.742188 L 438.597656 381.8125 L 471.214844 371.71875 L 501.195312 399.046875 " fill-opacity="1" fill-rule="nonzero"/><path fill="#1b1b25" d="M 452.949219 766.679688 C 432.699219 764.125 418.265625 760.75 418.265625 760.75 L 446.054688 447.742188 L 438.597656 381.8125 C 444.253906 398.171875 460.800781 430.449219 466.578125 446.835938 C 474.476562 469.230469 475.96875 471.8125 474.046875 494.84375 L 452.949219 766.679688 " fill-opacity="1" fill-rule="nonzero"/><path fill="#d5283f" d="M 504.699219 445.042969 L 530 383.660156 L 511.242188 376.828125 L 489.304688 425.671875 L 504.699219 445.042969 " fill-opacity="1" fill-rule="nonzero"/><path fill="#ed3947" d="M 504.699219 445.042969 L 450.125 378.246094 L 471.214844 371.71875 L 517.789062 414.105469 L 504.699219 445.042969 " fill-opacity="1" fill-rule="nonzero"/><path fill="#c9edf2" d="M 472.816406 363.628906 L 465.441406 373.253906 L 484.175781 390.207031 L 495.296875 376.113281 L 472.816406 363.628906 " fill-opacity="1" fill-rule="nonzero"/><path fill="#c9edf2" d="M 497.910156 363.480469 L 497.910156 372.171875 L 503.167969 382.199219 L 511.242188 370.8125 L 497.910156 363.480469 " fill-opacity="1" fill-rule="nonzero"/><path fill="#96d7f3" d="M 511.242188 370.8125 L 516.75 388.289062 L 504.285156 380.625 Z M 511.242188 370.8125 " fill-opacity="1" fill-rule="nonzero"/><g clip-path="url(#25b8399bc2)"><path fill="#16161e" d="M 390.289062 571.796875 L 442.085938 528.007812 L 507.59375 523.371094 L 459.917969 568.136719 L 390.289062 571.796875 " fill-opacity="1" fill-rule="nonzero"/></g><path fill="#1d1e29" d="M 473.46875 575.675781 C 477.847656 566.46875 491.074219 560.460938 491.074219 560.460938 L 478.269531 535.628906 C 446.445312 536.617188 421.25 561.644531 421.25 561.644531 L 430.972656 587.800781 C 430.972656 587.800781 455.308594 573.648438 473.46875 575.675781 " fill-opacity="1" fill-rule="nonzero"/><path fill="#15141b" d="M 484.976562 557.472656 C 482.761719 558.777344 480.308594 559.664062 478.128906 561.03125 C 474.253906 563.460938 471.753906 566.871094 469.824219 570.996094 C 469.699219 571.265625 469.410156 571.535156 469.078125 571.460938 C 465.707031 570.699219 462.222656 570.164062 458.8125 570.941406 C 456.101562 571.550781 453.65625 572.636719 451.046875 573.519531 C 448.113281 574.507812 445.214844 574.550781 443.386719 571.554688 C 440.621094 567.023438 437.789062 559.609375 438.277344 554.210938 C 438.507812 551.660156 439.421875 549.429688 440.566406 547.289062 C 428.617188 554.15625 421.25 561.644531 421.25 561.644531 L 430.972656 587.800781 C 430.972656 587.800781 455.308594 573.648438 473.46875 575.675781 C 477.847656 566.46875 491.074219 560.460938 491.074219 560.460938 L 488.277344 555.03125 C 487.59375 556.058594 486.242188 556.730469 484.976562 557.472656 " fill-opacity="1" fill-rule="nonzero"/><g clip-path="url(#26fd1c275b)"><path fill="#d47f40" d="M 401.046875 591.789062 L 400.050781 592.242188 L 390.664062 571.621094 L 391.664062 571.171875 L 401.046875 591.789062 " fill-opacity="1" fill-rule="nonzero"/></g><path fill="#d6ae41" d="M 399.644531 595.855469 L 405.617188 613.988281 C 405.617188 613.988281 410.007812 614.703125 413.648438 610.324219 L 404.011719 593.863281 L 399.644531 595.855469 " fill-opacity="1" fill-rule="nonzero"/><path fill="#d47f40" d="M 404.011719 593.863281 L 402.074219 590.996094 L 399.921875 590.679688 L 398.753906 592.511719 L 399.644531 595.855469 C 399.644531 595.855469 401.589844 596.203125 404.011719 593.863281 " fill-opacity="1" fill-rule="nonzero"/><path fill="#d47f40" d="M 401.542969 599.285156 C 401.542969 599.285156 402.0625 600.066406 402.65625 601.304688 C 403.261719 602.535156 403.949219 604.222656 404.527344 605.941406 C 405.097656 607.664062 405.558594 609.421875 405.808594 610.773438 C 406.074219 612.117188 406.128906 613.058594 406.128906 613.058594 C 406.128906 613.058594 405.613281 612.273438 405.015625 611.039062 C 404.414062 609.804688 403.726562 608.121094 403.148438 606.402344 C 402.578125 604.675781 402.121094 602.914062 401.867188 601.566406 C 401.597656 600.222656 401.542969 599.285156 401.542969 599.285156 " fill-opacity="1" fill-rule="nonzero"/><path fill="#d47f40" d="M 405.398438 597.90625 C 405.398438 597.90625 406.070312 598.558594 406.910156 599.648438 C 407.761719 600.722656 408.785156 602.226562 409.710938 603.785156 C 410.628906 605.351562 411.445312 606.976562 411.980469 608.238281 C 412.519531 609.5 412.769531 610.40625 412.769531 610.40625 C 412.769531 610.40625 412.097656 609.75 411.257812 608.667969 C 410.40625 607.585938 409.382812 606.085938 408.457031 604.527344 C 407.542969 602.960938 406.722656 601.332031 406.191406 600.070312 C 405.648438 598.808594 405.398438 597.90625 405.398438 597.90625 " fill-opacity="1" fill-rule="nonzero"/><path fill="#d47f40" d="M 402.484375 599.507812 C 402.484375 599.507812 403.039062 600.257812 403.695312 601.457031 C 404.367188 602.652344 405.136719 604.289062 405.804688 605.964844 C 406.460938 607.652344 407.007812 609.378906 407.332031 610.710938 C 407.664062 612.03125 407.769531 612.964844 407.769531 612.964844 C 407.769531 612.964844 407.210938 612.210938 406.554688 611.011719 C 405.886719 609.820312 405.113281 608.183594 404.453125 606.5 C 403.792969 604.816406 403.246094 603.089844 402.921875 601.765625 C 402.589844 600.4375 402.484375 599.507812 402.484375 599.507812 " fill-opacity="1" fill-rule="nonzero"/><path fill="#d47f40" d="M 403.683594 598.957031 C 403.683594 598.957031 404.261719 599.695312 404.949219 600.875 C 405.644531 602.046875 406.460938 603.664062 407.171875 605.324219 C 407.871094 606.988281 408.464844 608.695312 408.824219 610.011719 C 409.191406 611.328125 409.320312 612.253906 409.320312 612.253906 C 409.320312 612.253906 408.742188 611.523438 408.054688 610.34375 C 407.355469 609.167969 406.542969 607.554688 405.832031 605.890625 C 405.132812 604.226562 404.542969 602.515625 404.183594 601.199219 C 403.8125 599.886719 403.683594 598.957031 403.683594 598.957031 " fill-opacity="1" fill-rule="nonzero"/><path fill="#d47f40" d="M 404.707031 598.492188 C 404.707031 598.492188 405.316406 599.183594 406.054688 600.300781 C 406.808594 601.414062 407.699219 602.953125 408.484375 604.542969 C 409.261719 606.136719 409.9375 607.785156 410.355469 609.058594 C 410.789062 610.332031 410.960938 611.234375 410.960938 611.234375 C 410.960938 611.234375 410.347656 610.546875 409.605469 609.425781 C 408.851562 608.316406 407.964844 606.773438 407.179688 605.183594 C 406.402344 603.589844 405.730469 601.941406 405.3125 600.667969 C 404.878906 599.398438 404.707031 598.492188 404.707031 598.492188 " fill-opacity="1" fill-rule="nonzero"/><path fill="#f9ac7f" d="M 446.785156 429.199219 C 443.511719 456.082031 444.648438 465.675781 435.214844 488.792969 C 432.871094 492.769531 419.699219 489.644531 417.847656 478.621094 C 418.824219 457.792969 422.816406 423.300781 422.816406 423.300781 C 422.816406 423.300781 425.246094 407.285156 439.464844 411.1875 C 439.464844 411.1875 451.316406 414.359375 446.785156 429.199219 " fill-opacity="1" fill-rule="nonzero"/><path fill="#f7ac80" d="M 442.480469 568.144531 L 441.226562 559.855469 L 446.839844 556.640625 L 451.96875 563.628906 C 451.96875 563.628906 453.132812 575.609375 461.09375 576.332031 C 461.09375 576.332031 462.472656 577.058594 461.09375 578.269531 C 461.09375 578.269531 447.699219 584.042969 442.480469 568.144531 " fill-opacity="1" fill-rule="nonzero"/><path fill="#f7ac80" d="M 460.226562 572.386719 L 451.96875 563.628906 C 450.441406 562.269531 449.25 561.734375 447.933594 563.753906 C 446.339844 566.203125 448.335938 567.464844 450.027344 568.742188 C 450.027344 568.742188 457.359375 575.660156 460.226562 572.386719 " fill-opacity="1" fill-rule="nonzero"/><path fill="#f7ac80" d="M 441.789062 562.316406 L 446.839844 556.640625 L 439.589844 480.664062 C 437.722656 468.386719 425.949219 471.492188 425.949219 471.492188 C 417.332031 472.417969 417.855469 478.34375 417.855469 478.34375 C 417.855469 478.34375 421.300781 519.484375 441.789062 562.316406 " fill-opacity="1" fill-rule="nonzero"/><path fill="#55b1ad" d="M 438.597656 381.8125 C 438.597656 381.8125 426.710938 384.320312 423.203125 398.515625 L 414.03125 454.558594 C 414.03125 454.558594 422.988281 467.902344 444.464844 465.65625 L 454.5625 413.949219 C 454.5625 413.949219 454.921875 388.953125 438.597656 381.8125 " fill-opacity="1" fill-rule="nonzero"/><path fill="#252635" d="M 451.4375 557.550781 C 446.585938 567.265625 435.804688 563.222656 435.804688 563.222656 C 419.195312 517.378906 414.449219 480.886719 414.449219 480.886719 C 410.945312 446.992188 422.160156 398.738281 422.160156 398.738281 C 424.742188 385.550781 438.597656 381.8125 438.597656 381.8125 C 454.921875 388.953125 456.515625 416.25 456.515625 416.25 L 442.742188 485.097656 L 451.4375 557.550781 " fill-opacity="1" fill-rule="nonzero"/></svg>