<svg xmlns="http://www.w3.org/2000/svg" xmlns:xlink="http://www.w3.org/1999/xlink" width="1080" zoomAndPan="magnify" viewBox="0 0 810 809.999993" height="1080" preserveAspectRatio="xMidYMid meet" version="1.0"><defs><clipPath id="8d2fe601c5"><path d="M 43 266.613281 L 785 266.613281 L 785 807 L 43 807 Z M 43 266.613281 " clip-rule="nonzero"/></clipPath><clipPath id="1a5d444a8f"><path d="M 0 7 L 187.5 7 L 187.5 195 L 0 195 Z M 0 7 " clip-rule="nonzero"/></clipPath><clipPath id="bab8c1129a"><path d="M 168 98 L 187.5 98 L 187.5 105 L 168 105 Z M 168 98 " clip-rule="nonzero"/></clipPath></defs><rect x="-81" width="972" fill="#ffffff" y="-80.999999" height="971.999992" fill-opacity="1"/><rect x="-81" width="972" fill="#ffe3cf" y="-80.999999" height="971.999992" fill-opacity="1"/><path fill="#6d4c41" d="M 224.320312 532.46875 C 224.320312 532.46875 218.304688 608.507812 208.460938 628.746094 C 198.617188 648.988281 172.363281 675.246094 169.082031 688.375 C 165.800781 701.503906 158.691406 732.683594 155.410156 751.828125 C 154.027344 759.058594 153.300781 766.351562 153.222656 773.710938 C 153.222656 784.105469 155.410156 796.6875 163.613281 802.703125 C 166.820312 804.347656 170.1875 805.542969 173.710938 806.285156 C 177.238281 807.027344 180.800781 807.292969 184.398438 807.078125 L 196.429688 807.078125 C 197.144531 807.078125 197.855469 807.003906 198.558594 806.863281 C 199.261719 806.722656 199.945312 806.515625 200.609375 806.238281 C 201.269531 805.960938 201.902344 805.625 202.496094 805.226562 C 203.09375 804.828125 203.644531 804.375 204.152344 803.867188 C 204.660156 803.359375 205.113281 802.804688 205.511719 802.210938 C 205.910156 801.613281 206.25 800.984375 206.523438 800.320312 C 206.800781 799.65625 207.007812 798.976562 207.148438 798.269531 C 207.292969 797.566406 207.363281 796.855469 207.367188 796.140625 C 207.363281 795.421875 207.328125 794.707031 207.253906 793.996094 C 207.183594 793.285156 207.074219 792.578125 206.933594 791.875 C 206.792969 791.171875 206.617188 790.480469 206.410156 789.792969 C 206.199219 789.109375 205.957031 788.4375 205.683594 787.777344 C 205.40625 787.113281 205.101562 786.46875 204.761719 785.835938 C 204.425781 785.207031 204.058594 784.59375 203.660156 783.996094 C 203.261719 783.402344 202.835938 782.828125 202.378906 782.273438 C 201.925781 781.722656 201.445312 781.191406 200.9375 780.6875 C 200.433594 780.179688 199.902344 779.699219 199.351562 779.246094 C 198.796875 778.789062 198.222656 778.363281 197.628906 777.964844 C 197.03125 777.566406 196.421875 777.199219 195.789062 776.859375 C 195.160156 776.523438 194.511719 776.214844 193.851562 775.941406 C 193.191406 775.664062 192.519531 775.421875 191.832031 775.214844 C 191.148438 775.003906 190.457031 774.832031 189.753906 774.6875 C 189.050781 774.546875 188.34375 774.441406 187.632812 774.367188 C 186.921875 774.296875 186.207031 774.261719 185.492188 774.257812 C 185.492188 757.300781 199.164062 704.785156 210.101562 697.671875 C 245.648438 675.792969 261.507812 664.851562 261.507812 664.851562 C 261.507812 664.851562 297.601562 639.6875 293.773438 628.199219 C 287.757812 607.960938 224.320312 532.46875 224.320312 532.46875 Z M 224.320312 532.46875 " fill-opacity="1" fill-rule="nonzero"/><path fill="#6d4c41" d="M 524.554688 779.179688 C 524.554688 779.179688 530.023438 806.53125 554.632812 806.53125 L 573.773438 806.53125 C 574.492188 806.53125 575.203125 806.457031 575.90625 806.316406 C 576.609375 806.175781 577.292969 805.964844 577.957031 805.691406 C 578.617188 805.414062 579.246094 805.078125 579.84375 804.679688 C 580.441406 804.28125 580.992188 803.824219 581.5 803.320312 C 582.007812 802.8125 582.460938 802.257812 582.859375 801.664062 C 583.257812 801.066406 583.597656 800.4375 583.871094 799.773438 C 584.148438 799.109375 584.355469 798.429688 584.496094 797.722656 C 584.640625 797.019531 584.710938 796.308594 584.710938 795.59375 C 584.710938 794.875 584.671875 794.160156 584.601562 793.449219 C 584.53125 792.738281 584.421875 792.03125 584.28125 791.328125 C 584.140625 790.625 583.964844 789.933594 583.757812 789.246094 C 583.546875 788.5625 583.304688 787.890625 583.03125 787.230469 C 582.753906 786.566406 582.449219 785.921875 582.109375 785.289062 C 581.773438 784.660156 581.402344 784.046875 581.007812 783.449219 C 580.609375 782.855469 580.183594 782.28125 579.726562 781.726562 C 579.273438 781.175781 578.792969 780.644531 578.285156 780.140625 C 577.78125 779.632812 577.25 779.152344 576.699219 778.699219 C 576.144531 778.242188 575.570312 777.816406 574.976562 777.417969 C 574.378906 777.019531 573.765625 776.652344 573.136719 776.3125 C 572.503906 775.976562 571.859375 775.667969 571.199219 775.394531 C 570.539062 775.117188 569.863281 774.875 569.179688 774.667969 C 568.496094 774.457031 567.800781 774.285156 567.101562 774.140625 C 566.398438 774 565.691406 773.894531 564.980469 773.820312 C 564.265625 773.75 563.554688 773.710938 562.835938 773.710938 L 557.367188 773.710938 C 546.976562 773.710938 525.648438 560.914062 525.648438 560.914062 L 463.851562 582.25 Z M 524.554688 779.179688 " fill-opacity="1" fill-rule="nonzero"/><g clip-path="url(#8d2fe601c5)"><path fill="#8d6e63" d="M 485.179688 586.078125 C 485.179688 586.078125 447.445312 597.566406 423.929688 594.832031 C 384.554688 590.453125 364.867188 581.15625 364.867188 581.15625 C 364.867188 581.15625 365.414062 611.789062 336.429688 651.175781 C 316.195312 677.433594 292.679688 704.238281 293.773438 714.632812 C 295.414062 728.855469 315.648438 773.710938 315.648438 773.710938 L 326.585938 773.710938 C 327.300781 773.710938 328.015625 773.75 328.726562 773.820312 C 329.441406 773.894531 330.148438 774 330.847656 774.140625 C 331.550781 774.285156 332.242188 774.457031 332.929688 774.667969 C 333.613281 774.875 334.285156 775.117188 334.945312 775.394531 C 335.609375 775.667969 336.253906 775.976562 336.882812 776.3125 C 337.515625 776.652344 338.128906 777.019531 338.722656 777.417969 C 339.316406 777.816406 339.890625 778.242188 340.445312 778.699219 C 341 779.152344 341.527344 779.632812 342.035156 780.140625 C 342.539062 780.644531 343.019531 781.175781 343.476562 781.726562 C 343.929688 782.28125 344.355469 782.855469 344.753906 783.449219 C 345.152344 784.046875 345.519531 784.660156 345.859375 785.289062 C 346.195312 785.921875 346.503906 786.566406 346.777344 787.230469 C 347.054688 787.890625 347.296875 788.5625 347.503906 789.246094 C 347.714844 789.933594 347.886719 790.625 348.03125 791.328125 C 348.171875 792.03125 348.277344 792.738281 348.347656 793.449219 C 348.421875 794.160156 348.457031 794.875 348.460938 795.59375 C 348.457031 796.308594 348.386719 797.019531 348.246094 797.722656 C 348.101562 798.429688 347.894531 799.109375 347.621094 799.773438 C 347.34375 800.4375 347.007812 801.066406 346.605469 801.664062 C 346.207031 802.257812 345.753906 802.8125 345.246094 803.320312 C 344.738281 803.828125 344.1875 804.28125 343.59375 804.679688 C 342.996094 805.078125 342.367188 805.414062 341.703125 805.691406 C 341.042969 805.96875 340.359375 806.175781 339.65625 806.316406 C 338.949219 806.457031 338.242188 806.53125 337.523438 806.53125 L 319.476562 806.53125 C 309.085938 806.53125 302.523438 810.363281 281.742188 778.632812 C 259.867188 744.71875 248.929688 725.023438 245.648438 711.347656 C 242.367188 697.671875 258.226562 682.902344 261.507812 642.421875 C 261.507812 642.421875 201.351562 582.25 201.351562 515.511719 L 201.351562 449.320312 C 190.367188 453.121094 179.0625 454.945312 167.441406 454.789062 C 142.832031 454.789062 106.738281 448.226562 82.128906 423.0625 C 17.050781 359.058594 54.238281 266.613281 54.238281 266.613281 C 54.238281 266.613281 43.847656 405.011719 145.019531 410.480469 C 167.988281 411.574219 206.820312 401.183594 231.976562 392.429688 C 244.320312 387.488281 257.027344 383.777344 270.089844 381.292969 C 283.152344 378.808594 296.335938 377.597656 309.632812 377.660156 C 320.023438 377.660156 331.507812 377.660156 345.179688 378.207031 C 436.507812 382.582031 503.773438 422.515625 533.304688 425.25 C 615.339844 432.363281 610.964844 459.167969 663.464844 525.359375 C 672.761719 536.847656 687.527344 543.957031 698.464844 555.992188 C 707.761719 566.933594 713.230469 593.191406 724.714844 600.300781 C 746.589844 613.429688 746.589844 637.5 749.324219 649.535156 C 755.886719 683.449219 765.730469 691.109375 782.683594 719.554688 L 784.324219 758.394531 C 775.019531 763.050781 765.355469 766.761719 755.324219 769.523438 C 745.292969 772.285156 735.089844 774.046875 724.714844 774.804688 C 712.136719 774.804688 682.058594 749.640625 659.089844 723.929688 C 637.214844 699.859375 615.339844 682.902344 615.339844 666.492188 C 615.339844 632.578125 620.261719 608.507812 562.835938 617.804688 Z M 485.179688 586.078125 " fill-opacity="1" fill-rule="nonzero"/></g><path fill="#3e2723" d="M 664.011719 598.660156 C 638.308594 598.660156 607.136719 615.070312 607.136719 651.175781 C 607.136719 724.476562 607.136719 729.949219 595.101562 750.734375 C 586.351562 766.050781 590.179688 790.121094 616.433594 790.121094 C 618.964844 790.054688 621.480469 789.804688 623.976562 789.367188 C 626.476562 788.933594 628.925781 788.320312 631.335938 787.527344 C 633.742188 786.734375 636.082031 785.773438 638.347656 784.640625 C 640.613281 783.503906 642.789062 782.214844 644.867188 780.761719 C 646.945312 779.3125 648.90625 777.71875 650.753906 775.980469 C 652.601562 774.242188 654.3125 772.382812 655.886719 770.394531 C 657.460938 768.410156 658.882812 766.316406 660.152344 764.125 C 661.421875 761.929688 662.527344 759.65625 663.464844 757.300781 C 665.851562 751.328125 666.945312 745.128906 666.746094 738.699219 C 666.746094 717.367188 650.886719 701.503906 650.339844 672.507812 C 650.003906 660.148438 651.828125 648.113281 655.808594 636.40625 C 661.824219 619.996094 672.214844 611.789062 672.214844 607.414062 C 672.761719 603.035156 672.761719 598.660156 664.011719 598.660156 Z M 664.011719 598.660156 " fill-opacity="1" fill-rule="nonzero"/><path fill="#5d4037" d="M 782.683594 719.554688 C 782.683594 719.554688 771.199219 727.761719 771.199219 736.511719 C 771.199219 745.265625 784.324219 758.394531 784.324219 758.394531 C 785.78125 757.472656 787.085938 756.371094 788.242188 755.089844 C 789.398438 753.8125 790.359375 752.398438 791.132812 750.859375 C 791.902344 749.316406 792.453125 747.699219 792.78125 746.007812 C 793.113281 744.3125 793.210938 742.609375 793.074219 740.890625 C 793.074219 736.511719 782.683594 719.554688 782.683594 719.554688 Z M 782.683594 719.554688 " fill-opacity="1" fill-rule="nonzero"/><path fill="#795548" d="M 365.960938 582.25 L 437.054688 615.070312 C 437.054688 615.070312 492.835938 585.53125 497.210938 554.898438 C 497.210938 554.898438 420.648438 524.265625 385.101562 501.289062 C 381.589844 499.257812 377.957031 497.472656 374.203125 495.933594 C 370.449219 494.394531 366.609375 493.117188 362.679688 492.101562 C 358.753906 491.082031 354.773438 490.335938 350.746094 489.859375 C 346.714844 489.382812 342.671875 489.179688 338.617188 489.253906 C 338.617188 489.253906 365.960938 516.058594 365.960938 582.25 Z M 365.960938 582.25 " fill-opacity="1" fill-rule="nonzero"/><path fill="#8d6e63" d="M 590.179688 613.976562 C 580.882812 615.617188 545.335938 653.363281 497.210938 662.117188 C 473.148438 666.492188 474.789062 697.671875 474.789062 724.476562 C 474.789062 767.691406 441.976562 773.710938 426.664062 773.710938 C 414.085938 773.710938 404.242188 768.242188 404.242188 755.660156 L 404.242188 751.828125 C 404.242188 751.292969 404.273438 750.757812 404.324219 750.222656 C 404.378906 749.6875 404.460938 749.15625 404.566406 748.632812 C 404.671875 748.105469 404.804688 747.585938 404.960938 747.070312 C 405.117188 746.558594 405.296875 746.050781 405.503906 745.558594 C 405.710938 745.0625 405.941406 744.578125 406.195312 744.101562 C 406.449219 743.628906 406.722656 743.167969 407.023438 742.722656 C 407.320312 742.277344 407.640625 741.847656 407.980469 741.429688 C 408.320312 741.015625 408.683594 740.621094 409.0625 740.238281 C 409.441406 739.859375 409.839844 739.5 410.253906 739.160156 C 410.667969 738.816406 411.097656 738.496094 411.546875 738.199219 C 411.992188 737.902344 412.453125 737.625 412.925781 737.371094 C 413.398438 737.117188 413.882812 736.886719 414.378906 736.679688 C 414.875 736.472656 415.378906 736.292969 415.890625 736.136719 C 416.40625 735.980469 416.925781 735.847656 417.453125 735.742188 C 417.976562 735.636719 418.507812 735.554688 419.042969 735.5 C 419.578125 735.449219 420.113281 735.421875 420.648438 735.417969 L 430.492188 735.417969 C 431.519531 735.464844 432.53125 735.359375 433.523438 735.101562 C 434.519531 734.84375 435.457031 734.449219 436.332031 733.914062 C 437.210938 733.375 437.988281 732.722656 438.671875 731.957031 C 439.351562 731.1875 439.910156 730.335938 440.335938 729.402344 C 441.105469 727.867188 441.539062 726.246094 441.632812 724.535156 C 441.726562 722.824219 441.476562 721.164062 440.882812 719.554688 C 435.414062 704.785156 425.570312 662.117188 425.570312 644.0625 C 425.390625 641.355469 425.496094 638.660156 425.886719 635.972656 C 426.277344 633.285156 426.941406 630.671875 427.886719 628.125 C 428.828125 625.582031 430.027344 623.160156 431.480469 620.871094 C 432.933594 618.578125 434.609375 616.460938 436.507812 614.523438 C 445.804688 605.226562 482.992188 581.703125 496.117188 554.351562 L 531.664062 600.300781 Z M 590.179688 613.976562 " fill-opacity="1" fill-rule="nonzero"/><path fill="#ffab40" d="M 595.101562 631.480469 L 584.164062 628.746094 C 583.785156 628.664062 583.417969 628.539062 583.0625 628.382812 C 582.707031 628.222656 582.371094 628.03125 582.054688 627.804688 C 581.738281 627.578125 581.449219 627.324219 581.183594 627.039062 C 580.917969 626.753906 580.679688 626.445312 580.476562 626.113281 C 580.273438 625.785156 580.105469 625.433594 579.96875 625.070312 C 579.835938 624.703125 579.738281 624.328125 579.679688 623.945312 C 579.621094 623.558594 579.601562 623.171875 579.621094 622.785156 C 579.640625 622.394531 579.695312 622.011719 579.789062 621.636719 C 595.101562 563.648438 642.683594 530.828125 664.011719 517.152344 C 664.332031 516.964844 664.667969 516.8125 665.019531 516.695312 C 665.375 516.578125 665.734375 516.496094 666.101562 516.449219 C 666.472656 516.40625 666.839844 516.394531 667.210938 516.425781 C 667.582031 516.453125 667.945312 516.519531 668.304688 516.621094 C 668.660156 516.722656 669.003906 516.859375 669.332031 517.03125 C 669.664062 517.203125 669.972656 517.40625 670.261719 517.636719 C 670.550781 517.871094 670.8125 518.132812 671.050781 518.417969 C 671.285156 518.707031 671.492188 519.011719 671.667969 519.339844 L 677.683594 529.1875 C 677.859375 529.5 678.007812 529.824219 678.125 530.160156 C 678.242188 530.5 678.328125 530.84375 678.382812 531.199219 C 678.4375 531.554688 678.457031 531.910156 678.449219 532.265625 C 678.4375 532.625 678.394531 532.980469 678.320312 533.328125 C 678.246094 533.679688 678.140625 534.019531 678.003906 534.351562 C 677.863281 534.679688 677.699219 534.996094 677.503906 535.296875 C 677.308594 535.597656 677.089844 535.878906 676.84375 536.136719 C 676.597656 536.398438 676.332031 536.632812 676.042969 536.847656 C 648.699219 554.351562 614.246094 581.703125 602.214844 627.105469 C 601.953125 627.816406 601.582031 628.46875 601.105469 629.054688 C 600.625 629.640625 600.0625 630.132812 599.417969 630.53125 C 598.773438 630.925781 598.082031 631.207031 597.339844 631.371094 C 596.601562 631.535156 595.855469 631.570312 595.101562 631.480469 Z M 595.101562 631.480469 " fill-opacity="1" fill-rule="nonzero"/><path fill="#795548" d="M 700.105469 647.894531 C 700.105469 647.894531 701.199219 642.421875 712.683594 642.421875 C 723.621094 642.421875 727.449219 653.910156 727.449219 659.382812 C 727.417969 660.078125 727.324219 660.765625 727.160156 661.441406 C 727 662.121094 726.773438 662.777344 726.484375 663.414062 C 726.195312 664.046875 725.847656 664.648438 725.445312 665.214844 C 725.039062 665.785156 724.585938 666.308594 724.078125 666.789062 C 723.574219 667.269531 723.027344 667.695312 722.441406 668.070312 C 721.851562 668.445312 721.234375 668.761719 720.585938 669.019531 C 719.9375 669.273438 719.269531 669.464844 718.585938 669.59375 C 717.898438 669.71875 717.207031 669.78125 716.511719 669.773438 C 711.042969 669.773438 705.574219 665.398438 705.574219 661.570312 C 705.640625 660.707031 705.816406 659.871094 706.097656 659.054688 C 706.382812 658.238281 706.761719 657.472656 707.242188 656.753906 C 707.71875 656.035156 708.28125 655.390625 708.925781 654.816406 C 709.570312 654.242188 710.273438 653.757812 711.042969 653.363281 C 711.042969 653.363281 712.683594 647.894531 700.105469 647.894531 Z M 700.105469 647.894531 " fill-opacity="1" fill-rule="nonzero"/><g clip-path="url(#1a5d444a8f)"><path fill="#67b9cc" d="M 187.453125 101.398438 C 187.453125 102.496094 187.421875 103.558594 187.355469 104.625 C 186.96875 118.097656 183.605469 131.316406 177.503906 143.335938 C 176.433594 145.527344 175.238281 147.691406 173.980469 149.785156 C 157.035156 177.859375 126.582031 195.003906 93.75 194.953125 C 84.746094 194.96875 75.789062 193.675781 67.15625 191.113281 C 44.746094 184.488281 25.621094 169.75 13.519531 149.785156 C 12.261719 147.691406 11.066406 145.527344 9.996094 143.335938 C 3.894531 131.316406 0.53125 118.097656 0.144531 104.625 C 0.078125 103.558594 0.046875 102.496094 0.046875 101.398438 C 0.046875 100.300781 0.078125 99.234375 0.144531 98.171875 C 0.585938 83.472656 4.542969 69.097656 11.679688 56.234375 C 12.875 54.039062 14.167969 51.878906 15.585938 49.78125 C 27.753906 31.421875 46.015625 17.933594 67.15625 11.683594 L 67.191406 11.652344 C 106.695312 0.015625 149.183594 15.488281 171.914062 49.78125 C 173.332031 51.878906 174.625 54.039062 175.820312 56.234375 C 182.957031 69.097656 186.914062 83.472656 187.355469 98.171875 C 187.421875 99.234375 187.453125 100.300781 187.453125 101.398438 Z M 187.453125 101.398438 " fill-opacity="1" fill-rule="nonzero"/></g><path fill="#3b97d3" d="M 157.890625 143.335938 C 161.496094 132.90625 163.710938 122.050781 164.480469 111.042969 L 158.050781 110.589844 C 157.273438 121.78125 154.914062 132.808594 151.039062 143.335938 L 125.933594 143.335938 C 127.359375 134.847656 128.308594 126.285156 128.777344 117.6875 L 122.347656 117.300781 C 121.839844 126.027344 120.835938 134.722656 119.339844 143.335938 L 96.980469 143.335938 L 96.980469 123.980469 L 90.519531 123.980469 L 90.519531 143.335938 L 68.160156 143.335938 C 66.835938 135.765625 65.910156 128.128906 65.378906 120.464844 L 58.917969 120.949219 C 59.46875 128.496094 60.371094 136.042969 61.601562 143.335938 L 36.589844 143.335938 C 34.480469 137.789062 32.816406 132.082031 31.613281 126.269531 L 31.613281 111.078125 L 25.152344 111.078125 L 25.152344 126.59375 C 25.15625 126.808594 25.179688 127.023438 25.214844 127.238281 C 26.324219 132.703125 27.8125 138.082031 29.675781 143.335938 L 9.996094 143.335938 C 11.066406 145.527344 12.261719 147.691406 13.519531 149.785156 L 32.164062 149.785156 C 40.144531 168.53125 52.519531 183.046875 67.15625 191.113281 C 75.789062 193.675781 84.746094 194.96875 93.75 194.953125 C 102.898438 194.957031 111.996094 193.628906 120.761719 191.015625 C 135.398438 182.886719 147.582031 168.371094 155.402344 149.785156 L 173.980469 149.785156 C 175.238281 147.691406 176.433594 145.527344 177.503906 143.335938 Z M 39.273438 149.785156 L 62.796875 149.785156 C 66.09375 165.980469 71.195312 180.207031 78.015625 188.980469 C 62.019531 183.304688 48.125 169.175781 39.273438 149.785156 Z M 90.519531 190.984375 C 82.730469 187.757812 74.460938 173.207031 69.417969 149.785156 L 90.519531 149.785156 Z M 96.980469 190.984375 L 96.980469 149.785156 L 118.113281 149.785156 C 113.105469 173.273438 104.863281 187.789062 96.980469 190.984375 Z M 109.132812 189.175781 C 115.722656 180.851562 121.183594 167.175781 124.738281 149.785156 L 148.390625 149.785156 C 139.570312 169.339844 125.546875 183.628906 109.132812 189.175781 Z M 109.132812 189.175781 " fill-opacity="1" fill-rule="nonzero"/><path fill="#3b97d3" d="M 175.820312 56.234375 C 174.625 54.039062 173.332031 51.878906 171.914062 49.78125 L 153.816406 49.78125 C 146.929688 33.859375 135.179688 20.511719 120.246094 11.652344 C 102.925781 6.574219 84.507812 6.574219 67.191406 11.652344 L 67.15625 11.683594 C 52.253906 20.550781 40.527344 33.878906 33.652344 49.78125 L 15.585938 49.78125 C 14.167969 51.878906 12.875 54.039062 11.679688 56.234375 L 30.902344 56.234375 C 28.464844 62.503906 26.5625 68.96875 25.214844 75.558594 C 25.179688 75.769531 25.15625 75.988281 25.152344 76.203125 L 25.152344 98.171875 L 31.613281 98.171875 L 31.613281 76.523438 C 33.039062 69.585938 35.105469 62.792969 37.785156 56.234375 L 62.183594 56.234375 C 60.605469 64.703125 59.519531 73.253906 58.917969 81.847656 L 65.378906 82.332031 C 65.984375 73.574219 67.117188 64.859375 68.773438 56.234375 L 90.519531 56.234375 L 90.519531 78.816406 L 96.980469 78.816406 L 96.980469 56.234375 L 118.726562 56.234375 C 120.382812 64.859375 121.515625 73.574219 122.121094 82.332031 L 128.582031 81.847656 C 127.980469 73.253906 126.894531 64.703125 125.316406 56.234375 L 149.648438 56.234375 C 154.726562 68.601562 157.621094 81.753906 158.210938 95.109375 L 164.675781 94.785156 C 164.066406 81.585938 161.339844 68.570312 156.597656 56.234375 Z M 63.472656 49.78125 L 40.757812 49.78125 C 49.644531 32.039062 62.894531 19.167969 78.015625 13.8125 C 71.648438 22.007812 66.804688 34.941406 63.472656 49.78125 Z M 90.519531 49.78125 L 70.160156 49.78125 C 75.234375 28.265625 83.085938 14.910156 90.519531 11.8125 Z M 96.980469 49.78125 L 96.980469 11.8125 C 104.414062 14.910156 112.265625 28.265625 117.339844 49.78125 Z M 124.027344 49.78125 C 120.695312 34.941406 115.851562 21.976562 109.484375 13.8125 C 124.703125 19.199219 137.886719 32.167969 146.707031 49.78125 Z M 124.027344 49.78125 " fill-opacity="1" fill-rule="nonzero"/><g clip-path="url(#bab8c1129a)"><path fill="#3b97d3" d="M 187.453125 101.398438 C 187.453125 102.496094 187.421875 103.558594 187.355469 104.625 L 168.066406 104.625 L 168.066406 98.171875 L 187.355469 98.171875 C 187.421875 99.234375 187.453125 100.300781 187.453125 101.398438 Z M 187.453125 101.398438 " fill-opacity="1" fill-rule="nonzero"/></g><path fill="#3b97d3" d="M 19.433594 98.171875 L 19.433594 104.625 L 0.144531 104.625 C 0.078125 103.558594 0.046875 102.496094 0.046875 101.398438 C 0.046875 100.300781 0.078125 99.234375 0.144531 98.171875 Z M 19.433594 98.171875 " fill-opacity="1" fill-rule="nonzero"/><path fill="#ff5364" d="M 32.359375 75.589844 L 155.140625 75.589844 C 162.300781 75.589844 168.066406 81.347656 168.066406 88.492188 L 168.066406 114.304688 C 168.066406 121.449219 162.300781 127.207031 155.140625 127.207031 L 32.359375 127.207031 C 25.199219 127.207031 19.433594 121.449219 19.433594 114.304688 L 19.433594 88.492188 C 19.433594 81.347656 25.199219 75.589844 32.359375 75.589844 Z M 32.359375 75.589844 " fill-opacity="1" fill-rule="nonzero"/><path fill="#ecf0f1" d="M 142.214844 98.171875 C 140.648438 98.171875 139.308594 97.046875 139.039062 95.503906 C 138.765625 93.964844 139.644531 92.449219 141.117188 91.914062 C 142.589844 91.378906 144.234375 91.976562 145.019531 93.332031 C 145.9375 94.816406 147.871094 95.300781 149.382812 94.429688 C 150.894531 93.554688 151.441406 91.644531 150.613281 90.109375 C 148.261719 86.039062 143.324219 84.246094 138.902344 85.851562 C 134.480469 87.457031 131.851562 92 132.671875 96.625 C 133.488281 101.25 137.511719 104.625 142.214844 104.625 C 143.785156 104.625 145.125 105.75 145.398438 107.292969 C 145.667969 108.832031 144.792969 110.347656 143.320312 110.882812 C 141.84375 111.417969 140.199219 110.816406 139.417969 109.460938 C 138.496094 107.980469 136.5625 107.496094 135.050781 108.367188 C 133.539062 109.238281 132.996094 111.152344 133.824219 112.6875 C 136.175781 116.757812 141.113281 118.550781 145.535156 116.945312 C 149.953125 115.339844 152.582031 110.792969 151.765625 106.167969 C 150.945312 101.542969 146.921875 98.171875 142.214844 98.171875 Z M 142.214844 98.171875 " fill-opacity="1" fill-rule="nonzero"/><path fill="#ecf0f1" d="M 84.054688 91.71875 C 85.839844 91.71875 87.289062 90.273438 87.289062 88.492188 C 87.289062 86.710938 85.839844 85.269531 84.054688 85.269531 L 74.363281 85.269531 C 70.792969 85.269531 67.902344 88.15625 67.902344 91.71875 L 67.902344 111.078125 C 67.902344 114.640625 70.792969 117.527344 74.363281 117.527344 L 84.054688 117.527344 C 85.839844 117.527344 87.289062 116.085938 87.289062 114.304688 C 87.289062 112.519531 85.839844 111.078125 84.054688 111.078125 L 74.363281 111.078125 L 74.363281 104.625 L 80.824219 104.625 C 82.609375 104.625 84.054688 103.179688 84.054688 101.398438 C 84.054688 99.617188 82.609375 98.171875 80.824219 98.171875 L 74.363281 98.171875 L 74.363281 91.71875 Z M 84.054688 91.71875 " fill-opacity="1" fill-rule="nonzero"/><path fill="#ecf0f1" d="M 123.359375 85.3125 C 121.601562 85.023438 119.941406 86.207031 119.644531 87.960938 L 116.691406 105.722656 L 112.605469 99.59375 C 111.96875 98.75 110.972656 98.25 109.917969 98.25 C 108.855469 98.25 107.859375 98.75 107.226562 99.59375 L 103.140625 105.722656 L 100.175781 87.960938 C 99.84375 86.242188 98.203125 85.101562 96.46875 85.390625 C 94.738281 85.679688 93.558594 87.292969 93.804688 89.027344 L 98.113281 114.832031 C 98.332031 116.140625 99.328125 117.179688 100.621094 117.453125 C 101.917969 117.734375 103.25 117.191406 103.984375 116.09375 L 109.90625 107.207031 L 115.835938 116.082031 C 116.570312 117.183594 117.902344 117.722656 119.199219 117.445312 C 120.496094 117.167969 121.488281 116.128906 121.710938 114.824219 L 126.015625 89.015625 C 126.304688 87.261719 125.117188 85.605469 123.359375 85.3125 Z M 123.359375 85.3125 " fill-opacity="1" fill-rule="nonzero"/><path fill="#ecf0f1" d="M 58.207031 85.269531 C 56.421875 85.269531 54.976562 86.710938 54.976562 88.492188 L 54.976562 102.976562 L 44.921875 86.792969 C 44.164062 85.570312 42.6875 85 41.300781 85.390625 C 39.914062 85.777344 38.953125 87.039062 38.945312 88.476562 L 38.820312 114.285156 C 38.816406 115.144531 39.152344 115.96875 39.761719 116.578125 C 40.367188 117.1875 41.191406 117.527344 42.050781 117.527344 C 43.828125 117.527344 45.273438 116.09375 45.285156 114.316406 L 45.355469 99.730469 L 55.460938 116.003906 C 56.21875 117.226562 57.703125 117.800781 59.089844 117.40625 C 60.480469 117.011719 61.4375 115.742188 61.4375 114.304688 L 61.4375 88.492188 C 61.4375 86.710938 59.992188 85.269531 58.207031 85.269531 Z M 58.207031 85.269531 " fill-opacity="1" fill-rule="nonzero"/></svg>